G04 #@! TF.GenerationSoftware,KiCad,Pcbnew,(5.1.6)-1*
G04 #@! TF.CreationDate,2020-06-29T14:48:59-07:00*
G04 #@! TF.ProjectId,devboard,64657662-6f61-4726-942e-6b696361645f,A*
G04 #@! TF.SameCoordinates,PX7c82060PY49a3900*
G04 #@! TF.FileFunction,Soldermask,Bot*
G04 #@! TF.FilePolarity,Negative*
%FSLAX46Y46*%
G04 Gerber Fmt 4.6, Leading zero omitted, Abs format (unit mm)*
G04 Created by KiCad (PCBNEW (5.1.6)-1) date 2020-06-29 14:48:59*
%MOMM*%
%LPD*%
G01*
G04 APERTURE LIST*
%ADD10O,1.800000X1.800000*%
%ADD11R,1.800000X1.800000*%
%ADD12R,1.100000X1.600000*%
%ADD13C,1.300000*%
G04 APERTURE END LIST*
D10*
X16764000Y-49784000D03*
X16764000Y-47244000D03*
X16764000Y-44704000D03*
X16764000Y-42164000D03*
X16764000Y-39624000D03*
X16764000Y-37084000D03*
X16764000Y-34544000D03*
X16764000Y-32004000D03*
X16764000Y-29464000D03*
X16764000Y-26924000D03*
X16764000Y-24384000D03*
X16764000Y-21844000D03*
X16764000Y-19304000D03*
X16764000Y-16764000D03*
X16764000Y-14224000D03*
X16764000Y-11684000D03*
X16764000Y-9144000D03*
X16764000Y-6604000D03*
X16764000Y-4064000D03*
D11*
X16764000Y-1524000D03*
D10*
X1524000Y-49784000D03*
X1524000Y-47244000D03*
X1524000Y-44704000D03*
X1524000Y-42164000D03*
X1524000Y-39624000D03*
X1524000Y-37084000D03*
X1524000Y-34544000D03*
X1524000Y-32004000D03*
X1524000Y-29464000D03*
X1524000Y-26924000D03*
X1524000Y-24384000D03*
X1524000Y-21844000D03*
X1524000Y-19304000D03*
X1524000Y-16764000D03*
X1524000Y-14224000D03*
X1524000Y-11684000D03*
X1524000Y-9144000D03*
X1524000Y-6604000D03*
X1524000Y-4064000D03*
D11*
X1524000Y-1524000D03*
D12*
X9144000Y-25654000D03*
X7844000Y-25654000D03*
X10444000Y-25654000D03*
D13*
X4826000Y-4826000D03*
X13970000Y-48514000D03*
D10*
X12954000Y-1524000D03*
X10414000Y-1524000D03*
X7874000Y-1524000D03*
D11*
X5334000Y-1524000D03*
M02*
