G04 #@! TF.GenerationSoftware,KiCad,Pcbnew,(5.1.6)-1*
G04 #@! TF.CreationDate,2020-06-29T14:48:59-07:00*
G04 #@! TF.ProjectId,devboard,64657662-6f61-4726-942e-6b696361645f,A*
G04 #@! TF.SameCoordinates,PX7c82060PY49a3900*
G04 #@! TF.FileFunction,Legend,Bot*
G04 #@! TF.FilePolarity,Positive*
%FSLAX46Y46*%
G04 Gerber Fmt 4.6, Leading zero omitted, Abs format (unit mm)*
G04 Created by KiCad (PCBNEW (5.1.6)-1) date 2020-06-29 14:48:59*
%MOMM*%
%LPD*%
G01*
G04 APERTURE LIST*
%ADD10C,0.304800*%
%ADD11C,0.152400*%
%ADD12C,0.203200*%
%ADD13C,0.254000*%
%ADD14C,0.010000*%
%ADD15C,0.120000*%
G04 APERTURE END LIST*
D10*
X10172095Y-9071428D02*
X10293047Y-9289142D01*
X10293047Y-9652000D01*
X10172095Y-9797142D01*
X10051142Y-9869714D01*
X9809238Y-9942285D01*
X9567333Y-9942285D01*
X9325428Y-9869714D01*
X9204476Y-9797142D01*
X9083523Y-9652000D01*
X8962571Y-9361714D01*
X8841619Y-9216571D01*
X8720666Y-9144000D01*
X8478761Y-9071428D01*
X8236857Y-9071428D01*
X7994952Y-9144000D01*
X7874000Y-9216571D01*
X7753047Y-9361714D01*
X7753047Y-9724571D01*
X7874000Y-9942285D01*
X7753047Y-10377714D02*
X7753047Y-11248571D01*
X10293047Y-10813142D02*
X7753047Y-10813142D01*
X10293047Y-11756571D02*
X7753047Y-11756571D01*
X9567333Y-12264571D01*
X7753047Y-12772571D01*
X10293047Y-12772571D01*
X7753047Y-13353142D02*
X7753047Y-14296571D01*
X8720666Y-13788571D01*
X8720666Y-14006285D01*
X8841619Y-14151428D01*
X8962571Y-14224000D01*
X9204476Y-14296571D01*
X9809238Y-14296571D01*
X10051142Y-14224000D01*
X10172095Y-14151428D01*
X10293047Y-14006285D01*
X10293047Y-13570857D01*
X10172095Y-13425714D01*
X10051142Y-13353142D01*
X7994952Y-14877142D02*
X7874000Y-14949714D01*
X7753047Y-15094857D01*
X7753047Y-15457714D01*
X7874000Y-15602857D01*
X7994952Y-15675428D01*
X8236857Y-15748000D01*
X8478761Y-15748000D01*
X8841619Y-15675428D01*
X10293047Y-14804571D01*
X10293047Y-15748000D01*
X8962571Y-16909142D02*
X8962571Y-16401142D01*
X10293047Y-16401142D02*
X7753047Y-16401142D01*
X7753047Y-17126857D01*
X7753047Y-17997714D02*
X7753047Y-18142857D01*
X7874000Y-18288000D01*
X7994952Y-18360571D01*
X8236857Y-18433142D01*
X8720666Y-18505714D01*
X9325428Y-18505714D01*
X9809238Y-18433142D01*
X10051142Y-18360571D01*
X10172095Y-18288000D01*
X10293047Y-18142857D01*
X10293047Y-17997714D01*
X10172095Y-17852571D01*
X10051142Y-17780000D01*
X9809238Y-17707428D01*
X9325428Y-17634857D01*
X8720666Y-17634857D01*
X8236857Y-17707428D01*
X7994952Y-17780000D01*
X7874000Y-17852571D01*
X7753047Y-17997714D01*
X7753047Y-19013714D02*
X7753047Y-19957142D01*
X8720666Y-19449142D01*
X8720666Y-19666857D01*
X8841619Y-19812000D01*
X8962571Y-19884571D01*
X9204476Y-19957142D01*
X9809238Y-19957142D01*
X10051142Y-19884571D01*
X10172095Y-19812000D01*
X10293047Y-19666857D01*
X10293047Y-19231428D01*
X10172095Y-19086285D01*
X10051142Y-19013714D01*
X7753047Y-20900571D02*
X7753047Y-21045714D01*
X7874000Y-21190857D01*
X7994952Y-21263428D01*
X8236857Y-21336000D01*
X8720666Y-21408571D01*
X9325428Y-21408571D01*
X9809238Y-21336000D01*
X10051142Y-21263428D01*
X10172095Y-21190857D01*
X10293047Y-21045714D01*
X10293047Y-20900571D01*
X10172095Y-20755428D01*
X10051142Y-20682857D01*
X9809238Y-20610285D01*
X9325428Y-20537714D01*
X8720666Y-20537714D01*
X8236857Y-20610285D01*
X7994952Y-20682857D01*
X7874000Y-20755428D01*
X7753047Y-20900571D01*
X10051142Y-22932571D02*
X10172095Y-22860000D01*
X10293047Y-22642285D01*
X10293047Y-22497142D01*
X10172095Y-22279428D01*
X9930190Y-22134285D01*
X9688285Y-22061714D01*
X9204476Y-21989142D01*
X8841619Y-21989142D01*
X8357809Y-22061714D01*
X8115904Y-22134285D01*
X7874000Y-22279428D01*
X7753047Y-22497142D01*
X7753047Y-22642285D01*
X7874000Y-22860000D01*
X7994952Y-22932571D01*
X10293047Y-29500285D02*
X7753047Y-29500285D01*
X7753047Y-29863142D01*
X7874000Y-30080857D01*
X8115904Y-30226000D01*
X8357809Y-30298571D01*
X8841619Y-30371142D01*
X9204476Y-30371142D01*
X9688285Y-30298571D01*
X9930190Y-30226000D01*
X10172095Y-30080857D01*
X10293047Y-29863142D01*
X10293047Y-29500285D01*
X8962571Y-31024285D02*
X8962571Y-31532285D01*
X10293047Y-31750000D02*
X10293047Y-31024285D01*
X7753047Y-31024285D01*
X7753047Y-31750000D01*
X7753047Y-32185428D02*
X10293047Y-32693428D01*
X7753047Y-33201428D01*
X8962571Y-35378571D02*
X9083523Y-35596285D01*
X9204476Y-35668857D01*
X9446380Y-35741428D01*
X9809238Y-35741428D01*
X10051142Y-35668857D01*
X10172095Y-35596285D01*
X10293047Y-35451142D01*
X10293047Y-34870571D01*
X7753047Y-34870571D01*
X7753047Y-35378571D01*
X7874000Y-35523714D01*
X7994952Y-35596285D01*
X8236857Y-35668857D01*
X8478761Y-35668857D01*
X8720666Y-35596285D01*
X8841619Y-35523714D01*
X8962571Y-35378571D01*
X8962571Y-34870571D01*
X7753047Y-36684857D02*
X7753047Y-36975142D01*
X7874000Y-37120285D01*
X8115904Y-37265428D01*
X8599714Y-37338000D01*
X9446380Y-37338000D01*
X9930190Y-37265428D01*
X10172095Y-37120285D01*
X10293047Y-36975142D01*
X10293047Y-36684857D01*
X10172095Y-36539714D01*
X9930190Y-36394571D01*
X9446380Y-36322000D01*
X8599714Y-36322000D01*
X8115904Y-36394571D01*
X7874000Y-36539714D01*
X7753047Y-36684857D01*
X9567333Y-37918571D02*
X9567333Y-38644285D01*
X10293047Y-37773428D02*
X7753047Y-38281428D01*
X10293047Y-38789428D01*
X10293047Y-40168285D02*
X9083523Y-39660285D01*
X10293047Y-39297428D02*
X7753047Y-39297428D01*
X7753047Y-39878000D01*
X7874000Y-40023142D01*
X7994952Y-40095714D01*
X8236857Y-40168285D01*
X8599714Y-40168285D01*
X8841619Y-40095714D01*
X8962571Y-40023142D01*
X9083523Y-39878000D01*
X9083523Y-39297428D01*
X10293047Y-40821428D02*
X7753047Y-40821428D01*
X7753047Y-41184285D01*
X7874000Y-41402000D01*
X8115904Y-41547142D01*
X8357809Y-41619714D01*
X8841619Y-41692285D01*
X9204476Y-41692285D01*
X9688285Y-41619714D01*
X9930190Y-41547142D01*
X10172095Y-41402000D01*
X10293047Y-41184285D01*
X10293047Y-40821428D01*
D11*
X14803482Y-49725942D02*
X14687368Y-49764647D01*
X14648663Y-49803352D01*
X14609959Y-49880761D01*
X14609959Y-49996876D01*
X14648663Y-50074285D01*
X14687368Y-50112990D01*
X14764778Y-50151695D01*
X15074416Y-50151695D01*
X15074416Y-49338895D01*
X14803482Y-49338895D01*
X14726073Y-49377600D01*
X14687368Y-49416304D01*
X14648663Y-49493714D01*
X14648663Y-49571123D01*
X14687368Y-49648533D01*
X14726073Y-49687238D01*
X14803482Y-49725942D01*
X15074416Y-49725942D01*
X13835863Y-50151695D02*
X14300320Y-50151695D01*
X14068092Y-50151695D02*
X14068092Y-49338895D01*
X14145501Y-49455009D01*
X14222911Y-49532419D01*
X14300320Y-49571123D01*
X13526225Y-49416304D02*
X13487520Y-49377600D01*
X13410111Y-49338895D01*
X13216587Y-49338895D01*
X13139178Y-49377600D01*
X13100473Y-49416304D01*
X13061768Y-49493714D01*
X13061768Y-49571123D01*
X13100473Y-49687238D01*
X13564930Y-50151695D01*
X13061768Y-50151695D01*
X14803482Y-47185942D02*
X14687368Y-47224647D01*
X14648663Y-47263352D01*
X14609959Y-47340761D01*
X14609959Y-47456876D01*
X14648663Y-47534285D01*
X14687368Y-47572990D01*
X14764778Y-47611695D01*
X15074416Y-47611695D01*
X15074416Y-46798895D01*
X14803482Y-46798895D01*
X14726073Y-46837600D01*
X14687368Y-46876304D01*
X14648663Y-46953714D01*
X14648663Y-47031123D01*
X14687368Y-47108533D01*
X14726073Y-47147238D01*
X14803482Y-47185942D01*
X15074416Y-47185942D01*
X13835863Y-47611695D02*
X14300320Y-47611695D01*
X14068092Y-47611695D02*
X14068092Y-46798895D01*
X14145501Y-46915009D01*
X14222911Y-46992419D01*
X14300320Y-47031123D01*
X13564930Y-46798895D02*
X13061768Y-46798895D01*
X13332701Y-47108533D01*
X13216587Y-47108533D01*
X13139178Y-47147238D01*
X13100473Y-47185942D01*
X13061768Y-47263352D01*
X13061768Y-47456876D01*
X13100473Y-47534285D01*
X13139178Y-47572990D01*
X13216587Y-47611695D01*
X13448816Y-47611695D01*
X13526225Y-47572990D01*
X13564930Y-47534285D01*
X14803482Y-44645942D02*
X14687368Y-44684647D01*
X14648663Y-44723352D01*
X14609959Y-44800761D01*
X14609959Y-44916876D01*
X14648663Y-44994285D01*
X14687368Y-45032990D01*
X14764778Y-45071695D01*
X15074416Y-45071695D01*
X15074416Y-44258895D01*
X14803482Y-44258895D01*
X14726073Y-44297600D01*
X14687368Y-44336304D01*
X14648663Y-44413714D01*
X14648663Y-44491123D01*
X14687368Y-44568533D01*
X14726073Y-44607238D01*
X14803482Y-44645942D01*
X15074416Y-44645942D01*
X13835863Y-45071695D02*
X14300320Y-45071695D01*
X14068092Y-45071695D02*
X14068092Y-44258895D01*
X14145501Y-44375009D01*
X14222911Y-44452419D01*
X14300320Y-44491123D01*
X13139178Y-44529828D02*
X13139178Y-45071695D01*
X13332701Y-44220190D02*
X13526225Y-44800761D01*
X13023063Y-44800761D01*
X14803482Y-42105942D02*
X14687368Y-42144647D01*
X14648663Y-42183352D01*
X14609959Y-42260761D01*
X14609959Y-42376876D01*
X14648663Y-42454285D01*
X14687368Y-42492990D01*
X14764778Y-42531695D01*
X15074416Y-42531695D01*
X15074416Y-41718895D01*
X14803482Y-41718895D01*
X14726073Y-41757600D01*
X14687368Y-41796304D01*
X14648663Y-41873714D01*
X14648663Y-41951123D01*
X14687368Y-42028533D01*
X14726073Y-42067238D01*
X14803482Y-42105942D01*
X15074416Y-42105942D01*
X13835863Y-42531695D02*
X14300320Y-42531695D01*
X14068092Y-42531695D02*
X14068092Y-41718895D01*
X14145501Y-41835009D01*
X14222911Y-41912419D01*
X14300320Y-41951123D01*
X13100473Y-41718895D02*
X13487520Y-41718895D01*
X13526225Y-42105942D01*
X13487520Y-42067238D01*
X13410111Y-42028533D01*
X13216587Y-42028533D01*
X13139178Y-42067238D01*
X13100473Y-42105942D01*
X13061768Y-42183352D01*
X13061768Y-42376876D01*
X13100473Y-42454285D01*
X13139178Y-42492990D01*
X13216587Y-42531695D01*
X13410111Y-42531695D01*
X13487520Y-42492990D01*
X13526225Y-42454285D01*
X14986120Y-39759466D02*
X14599073Y-39759466D01*
X15063530Y-39991695D02*
X14792597Y-39178895D01*
X14521663Y-39991695D01*
X14134616Y-39527238D02*
X14212025Y-39488533D01*
X14250730Y-39449828D01*
X14289435Y-39372419D01*
X14289435Y-39333714D01*
X14250730Y-39256304D01*
X14212025Y-39217600D01*
X14134616Y-39178895D01*
X13979797Y-39178895D01*
X13902387Y-39217600D01*
X13863682Y-39256304D01*
X13824978Y-39333714D01*
X13824978Y-39372419D01*
X13863682Y-39449828D01*
X13902387Y-39488533D01*
X13979797Y-39527238D01*
X14134616Y-39527238D01*
X14212025Y-39565942D01*
X14250730Y-39604647D01*
X14289435Y-39682057D01*
X14289435Y-39836876D01*
X14250730Y-39914285D01*
X14212025Y-39952990D01*
X14134616Y-39991695D01*
X13979797Y-39991695D01*
X13902387Y-39952990D01*
X13863682Y-39914285D01*
X13824978Y-39836876D01*
X13824978Y-39682057D01*
X13863682Y-39604647D01*
X13902387Y-39565942D01*
X13979797Y-39527238D01*
X14986120Y-37219466D02*
X14599073Y-37219466D01*
X15063530Y-37451695D02*
X14792597Y-36638895D01*
X14521663Y-37451695D01*
X14212025Y-37451695D02*
X14057206Y-37451695D01*
X13979797Y-37412990D01*
X13941092Y-37374285D01*
X13863682Y-37258171D01*
X13824978Y-37103352D01*
X13824978Y-36793714D01*
X13863682Y-36716304D01*
X13902387Y-36677600D01*
X13979797Y-36638895D01*
X14134616Y-36638895D01*
X14212025Y-36677600D01*
X14250730Y-36716304D01*
X14289435Y-36793714D01*
X14289435Y-36987238D01*
X14250730Y-37064647D01*
X14212025Y-37103352D01*
X14134616Y-37142057D01*
X13979797Y-37142057D01*
X13902387Y-37103352D01*
X13863682Y-37064647D01*
X13824978Y-36987238D01*
X14986120Y-34679466D02*
X14599073Y-34679466D01*
X15063530Y-34911695D02*
X14792597Y-34098895D01*
X14521663Y-34911695D01*
X13824978Y-34911695D02*
X14289435Y-34911695D01*
X14057206Y-34911695D02*
X14057206Y-34098895D01*
X14134616Y-34215009D01*
X14212025Y-34292419D01*
X14289435Y-34331123D01*
X13321816Y-34098895D02*
X13244406Y-34098895D01*
X13166997Y-34137600D01*
X13128292Y-34176304D01*
X13089587Y-34253714D01*
X13050882Y-34408533D01*
X13050882Y-34602057D01*
X13089587Y-34756876D01*
X13128292Y-34834285D01*
X13166997Y-34872990D01*
X13244406Y-34911695D01*
X13321816Y-34911695D01*
X13399225Y-34872990D01*
X13437930Y-34834285D01*
X13476635Y-34756876D01*
X13515340Y-34602057D01*
X13515340Y-34408533D01*
X13476635Y-34253714D01*
X13437930Y-34176304D01*
X13399225Y-34137600D01*
X13321816Y-34098895D01*
X14986120Y-32139466D02*
X14599073Y-32139466D01*
X15063530Y-32371695D02*
X14792597Y-31558895D01*
X14521663Y-32371695D01*
X13824978Y-32371695D02*
X14289435Y-32371695D01*
X14057206Y-32371695D02*
X14057206Y-31558895D01*
X14134616Y-31675009D01*
X14212025Y-31752419D01*
X14289435Y-31791123D01*
X13050882Y-32371695D02*
X13515340Y-32371695D01*
X13283111Y-32371695D02*
X13283111Y-31558895D01*
X13360520Y-31675009D01*
X13437930Y-31752419D01*
X13515340Y-31791123D01*
X14986120Y-29599466D02*
X14599073Y-29599466D01*
X15063530Y-29831695D02*
X14792597Y-29018895D01*
X14521663Y-29831695D01*
X13824978Y-29831695D02*
X14289435Y-29831695D01*
X14057206Y-29831695D02*
X14057206Y-29018895D01*
X14134616Y-29135009D01*
X14212025Y-29212419D01*
X14289435Y-29251123D01*
X13515340Y-29096304D02*
X13476635Y-29057600D01*
X13399225Y-29018895D01*
X13205701Y-29018895D01*
X13128292Y-29057600D01*
X13089587Y-29096304D01*
X13050882Y-29173714D01*
X13050882Y-29251123D01*
X13089587Y-29367238D01*
X13554044Y-29831695D01*
X13050882Y-29831695D01*
X14867466Y-25956380D02*
X14867466Y-26343428D01*
X15099695Y-25878971D02*
X14286895Y-26149904D01*
X15099695Y-26420838D01*
X15099695Y-27117523D02*
X15099695Y-26653066D01*
X15099695Y-26885295D02*
X14286895Y-26885295D01*
X14403009Y-26807885D01*
X14480419Y-26730476D01*
X14519123Y-26653066D01*
X14286895Y-27852914D02*
X14286895Y-27465866D01*
X14673942Y-27427161D01*
X14635238Y-27465866D01*
X14596533Y-27543276D01*
X14596533Y-27736800D01*
X14635238Y-27814209D01*
X14673942Y-27852914D01*
X14751352Y-27891619D01*
X14944876Y-27891619D01*
X15022285Y-27852914D01*
X15060990Y-27814209D01*
X15099695Y-27736800D01*
X15099695Y-27543276D01*
X15060990Y-27465866D01*
X15022285Y-27427161D01*
X14803482Y-24325942D02*
X15074416Y-24325942D01*
X15074416Y-24751695D02*
X15074416Y-23938895D01*
X14687368Y-23938895D01*
X14029387Y-23938895D02*
X14184206Y-23938895D01*
X14261616Y-23977600D01*
X14300320Y-24016304D01*
X14377730Y-24132419D01*
X14416435Y-24287238D01*
X14416435Y-24596876D01*
X14377730Y-24674285D01*
X14339025Y-24712990D01*
X14261616Y-24751695D01*
X14106797Y-24751695D01*
X14029387Y-24712990D01*
X13990682Y-24674285D01*
X13951978Y-24596876D01*
X13951978Y-24403352D01*
X13990682Y-24325942D01*
X14029387Y-24287238D01*
X14106797Y-24248533D01*
X14261616Y-24248533D01*
X14339025Y-24287238D01*
X14377730Y-24325942D01*
X14416435Y-24403352D01*
X14803482Y-21785942D02*
X15074416Y-21785942D01*
X15074416Y-22211695D02*
X15074416Y-21398895D01*
X14687368Y-21398895D01*
X14455140Y-21398895D02*
X13913273Y-21398895D01*
X14261616Y-22211695D01*
X14803482Y-19245942D02*
X14687368Y-19284647D01*
X14648663Y-19323352D01*
X14609959Y-19400761D01*
X14609959Y-19516876D01*
X14648663Y-19594285D01*
X14687368Y-19632990D01*
X14764778Y-19671695D01*
X15074416Y-19671695D01*
X15074416Y-18858895D01*
X14803482Y-18858895D01*
X14726073Y-18897600D01*
X14687368Y-18936304D01*
X14648663Y-19013714D01*
X14648663Y-19091123D01*
X14687368Y-19168533D01*
X14726073Y-19207238D01*
X14803482Y-19245942D01*
X15074416Y-19245942D01*
X14339025Y-18858895D02*
X13835863Y-18858895D01*
X14106797Y-19168533D01*
X13990682Y-19168533D01*
X13913273Y-19207238D01*
X13874568Y-19245942D01*
X13835863Y-19323352D01*
X13835863Y-19516876D01*
X13874568Y-19594285D01*
X13913273Y-19632990D01*
X13990682Y-19671695D01*
X14222911Y-19671695D01*
X14300320Y-19632990D01*
X14339025Y-19594285D01*
X14803482Y-16705942D02*
X14687368Y-16744647D01*
X14648663Y-16783352D01*
X14609959Y-16860761D01*
X14609959Y-16976876D01*
X14648663Y-17054285D01*
X14687368Y-17092990D01*
X14764778Y-17131695D01*
X15074416Y-17131695D01*
X15074416Y-16318895D01*
X14803482Y-16318895D01*
X14726073Y-16357600D01*
X14687368Y-16396304D01*
X14648663Y-16473714D01*
X14648663Y-16551123D01*
X14687368Y-16628533D01*
X14726073Y-16667238D01*
X14803482Y-16705942D01*
X15074416Y-16705942D01*
X13913273Y-16589828D02*
X13913273Y-17131695D01*
X14106797Y-16280190D02*
X14300320Y-16860761D01*
X13797159Y-16860761D01*
X14803482Y-14165942D02*
X14687368Y-14204647D01*
X14648663Y-14243352D01*
X14609959Y-14320761D01*
X14609959Y-14436876D01*
X14648663Y-14514285D01*
X14687368Y-14552990D01*
X14764778Y-14591695D01*
X15074416Y-14591695D01*
X15074416Y-13778895D01*
X14803482Y-13778895D01*
X14726073Y-13817600D01*
X14687368Y-13856304D01*
X14648663Y-13933714D01*
X14648663Y-14011123D01*
X14687368Y-14088533D01*
X14726073Y-14127238D01*
X14803482Y-14165942D01*
X15074416Y-14165942D01*
X13874568Y-13778895D02*
X14261616Y-13778895D01*
X14300320Y-14165942D01*
X14261616Y-14127238D01*
X14184206Y-14088533D01*
X13990682Y-14088533D01*
X13913273Y-14127238D01*
X13874568Y-14165942D01*
X13835863Y-14243352D01*
X13835863Y-14436876D01*
X13874568Y-14514285D01*
X13913273Y-14552990D01*
X13990682Y-14591695D01*
X14184206Y-14591695D01*
X14261616Y-14552990D01*
X14300320Y-14514285D01*
X14803482Y-11625942D02*
X14687368Y-11664647D01*
X14648663Y-11703352D01*
X14609959Y-11780761D01*
X14609959Y-11896876D01*
X14648663Y-11974285D01*
X14687368Y-12012990D01*
X14764778Y-12051695D01*
X15074416Y-12051695D01*
X15074416Y-11238895D01*
X14803482Y-11238895D01*
X14726073Y-11277600D01*
X14687368Y-11316304D01*
X14648663Y-11393714D01*
X14648663Y-11471123D01*
X14687368Y-11548533D01*
X14726073Y-11587238D01*
X14803482Y-11625942D01*
X15074416Y-11625942D01*
X13913273Y-11238895D02*
X14068092Y-11238895D01*
X14145501Y-11277600D01*
X14184206Y-11316304D01*
X14261616Y-11432419D01*
X14300320Y-11587238D01*
X14300320Y-11896876D01*
X14261616Y-11974285D01*
X14222911Y-12012990D01*
X14145501Y-12051695D01*
X13990682Y-12051695D01*
X13913273Y-12012990D01*
X13874568Y-11974285D01*
X13835863Y-11896876D01*
X13835863Y-11703352D01*
X13874568Y-11625942D01*
X13913273Y-11587238D01*
X13990682Y-11548533D01*
X14145501Y-11548533D01*
X14222911Y-11587238D01*
X14261616Y-11625942D01*
X14300320Y-11703352D01*
X14803482Y-9085942D02*
X14687368Y-9124647D01*
X14648663Y-9163352D01*
X14609959Y-9240761D01*
X14609959Y-9356876D01*
X14648663Y-9434285D01*
X14687368Y-9472990D01*
X14764778Y-9511695D01*
X15074416Y-9511695D01*
X15074416Y-8698895D01*
X14803482Y-8698895D01*
X14726073Y-8737600D01*
X14687368Y-8776304D01*
X14648663Y-8853714D01*
X14648663Y-8931123D01*
X14687368Y-9008533D01*
X14726073Y-9047238D01*
X14803482Y-9085942D01*
X15074416Y-9085942D01*
X14339025Y-8698895D02*
X13797159Y-8698895D01*
X14145501Y-9511695D01*
X14673942Y-6275009D02*
X14712647Y-6391123D01*
X14751352Y-6429828D01*
X14828761Y-6468533D01*
X14944876Y-6468533D01*
X15022285Y-6429828D01*
X15060990Y-6391123D01*
X15099695Y-6313714D01*
X15099695Y-6004076D01*
X14286895Y-6004076D01*
X14286895Y-6275009D01*
X14325600Y-6352419D01*
X14364304Y-6391123D01*
X14441714Y-6429828D01*
X14519123Y-6429828D01*
X14596533Y-6391123D01*
X14635238Y-6352419D01*
X14673942Y-6275009D01*
X14673942Y-6004076D01*
X14635238Y-6932990D02*
X14596533Y-6855580D01*
X14557828Y-6816876D01*
X14480419Y-6778171D01*
X14441714Y-6778171D01*
X14364304Y-6816876D01*
X14325600Y-6855580D01*
X14286895Y-6932990D01*
X14286895Y-7087809D01*
X14325600Y-7165219D01*
X14364304Y-7203923D01*
X14441714Y-7242628D01*
X14480419Y-7242628D01*
X14557828Y-7203923D01*
X14596533Y-7165219D01*
X14635238Y-7087809D01*
X14635238Y-6932990D01*
X14673942Y-6855580D01*
X14712647Y-6816876D01*
X14790057Y-6778171D01*
X14944876Y-6778171D01*
X15022285Y-6816876D01*
X15060990Y-6855580D01*
X15099695Y-6932990D01*
X15099695Y-7087809D01*
X15060990Y-7165219D01*
X15022285Y-7203923D01*
X14944876Y-7242628D01*
X14790057Y-7242628D01*
X14712647Y-7203923D01*
X14673942Y-7165219D01*
X14635238Y-7087809D01*
X14673942Y-3735009D02*
X14712647Y-3851123D01*
X14751352Y-3889828D01*
X14828761Y-3928533D01*
X14944876Y-3928533D01*
X15022285Y-3889828D01*
X15060990Y-3851123D01*
X15099695Y-3773714D01*
X15099695Y-3464076D01*
X14286895Y-3464076D01*
X14286895Y-3735009D01*
X14325600Y-3812419D01*
X14364304Y-3851123D01*
X14441714Y-3889828D01*
X14519123Y-3889828D01*
X14596533Y-3851123D01*
X14635238Y-3812419D01*
X14673942Y-3735009D01*
X14673942Y-3464076D01*
X15099695Y-4315580D02*
X15099695Y-4470400D01*
X15060990Y-4547809D01*
X15022285Y-4586514D01*
X14906171Y-4663923D01*
X14751352Y-4702628D01*
X14441714Y-4702628D01*
X14364304Y-4663923D01*
X14325600Y-4625219D01*
X14286895Y-4547809D01*
X14286895Y-4392990D01*
X14325600Y-4315580D01*
X14364304Y-4276876D01*
X14441714Y-4238171D01*
X14635238Y-4238171D01*
X14712647Y-4276876D01*
X14751352Y-4315580D01*
X14790057Y-4392990D01*
X14790057Y-4547809D01*
X14751352Y-4625219D01*
X14712647Y-4663923D01*
X14635238Y-4702628D01*
X14325600Y-904723D02*
X14286895Y-827314D01*
X14286895Y-711200D01*
X14325600Y-595085D01*
X14403009Y-517676D01*
X14480419Y-478971D01*
X14635238Y-440266D01*
X14751352Y-440266D01*
X14906171Y-478971D01*
X14983580Y-517676D01*
X15060990Y-595085D01*
X15099695Y-711200D01*
X15099695Y-788609D01*
X15060990Y-904723D01*
X15022285Y-943428D01*
X14751352Y-943428D01*
X14751352Y-788609D01*
X15099695Y-1291771D02*
X14286895Y-1291771D01*
X15099695Y-1756228D01*
X14286895Y-1756228D01*
X15099695Y-2143276D02*
X14286895Y-2143276D01*
X14286895Y-2336800D01*
X14325600Y-2452914D01*
X14403009Y-2530323D01*
X14480419Y-2569028D01*
X14635238Y-2607733D01*
X14751352Y-2607733D01*
X14906171Y-2569028D01*
X14983580Y-2530323D01*
X15060990Y-2452914D01*
X15099695Y-2336800D01*
X15099695Y-2143276D01*
X4916593Y-49725942D02*
X4800479Y-49764647D01*
X4761774Y-49803352D01*
X4723069Y-49880761D01*
X4723069Y-49996876D01*
X4761774Y-50074285D01*
X4800479Y-50112990D01*
X4877888Y-50151695D01*
X5187526Y-50151695D01*
X5187526Y-49338895D01*
X4916593Y-49338895D01*
X4839183Y-49377600D01*
X4800479Y-49416304D01*
X4761774Y-49493714D01*
X4761774Y-49571123D01*
X4800479Y-49648533D01*
X4839183Y-49687238D01*
X4916593Y-49725942D01*
X5187526Y-49725942D01*
X3948974Y-50151695D02*
X4413431Y-50151695D01*
X4181202Y-50151695D02*
X4181202Y-49338895D01*
X4258612Y-49455009D01*
X4336021Y-49532419D01*
X4413431Y-49571123D01*
X3174879Y-50151695D02*
X3639336Y-50151695D01*
X3407107Y-50151695D02*
X3407107Y-49338895D01*
X3484517Y-49455009D01*
X3561926Y-49532419D01*
X3639336Y-49571123D01*
X4916593Y-47185942D02*
X4800479Y-47224647D01*
X4761774Y-47263352D01*
X4723069Y-47340761D01*
X4723069Y-47456876D01*
X4761774Y-47534285D01*
X4800479Y-47572990D01*
X4877888Y-47611695D01*
X5187526Y-47611695D01*
X5187526Y-46798895D01*
X4916593Y-46798895D01*
X4839183Y-46837600D01*
X4800479Y-46876304D01*
X4761774Y-46953714D01*
X4761774Y-47031123D01*
X4800479Y-47108533D01*
X4839183Y-47147238D01*
X4916593Y-47185942D01*
X5187526Y-47185942D01*
X3948974Y-47611695D02*
X4413431Y-47611695D01*
X4181202Y-47611695D02*
X4181202Y-46798895D01*
X4258612Y-46915009D01*
X4336021Y-46992419D01*
X4413431Y-47031123D01*
X3445812Y-46798895D02*
X3368402Y-46798895D01*
X3290993Y-46837600D01*
X3252288Y-46876304D01*
X3213583Y-46953714D01*
X3174879Y-47108533D01*
X3174879Y-47302057D01*
X3213583Y-47456876D01*
X3252288Y-47534285D01*
X3290993Y-47572990D01*
X3368402Y-47611695D01*
X3445812Y-47611695D01*
X3523221Y-47572990D01*
X3561926Y-47534285D01*
X3600631Y-47456876D01*
X3639336Y-47302057D01*
X3639336Y-47108533D01*
X3600631Y-46953714D01*
X3561926Y-46876304D01*
X3523221Y-46837600D01*
X3445812Y-46798895D01*
X4142498Y-44645942D02*
X4026383Y-44684647D01*
X3987679Y-44723352D01*
X3948974Y-44800761D01*
X3948974Y-44916876D01*
X3987679Y-44994285D01*
X4026383Y-45032990D01*
X4103793Y-45071695D01*
X4413431Y-45071695D01*
X4413431Y-44258895D01*
X4142498Y-44258895D01*
X4065088Y-44297600D01*
X4026383Y-44336304D01*
X3987679Y-44413714D01*
X3987679Y-44491123D01*
X4026383Y-44568533D01*
X4065088Y-44607238D01*
X4142498Y-44645942D01*
X4413431Y-44645942D01*
X3639336Y-44336304D02*
X3600631Y-44297600D01*
X3523221Y-44258895D01*
X3329698Y-44258895D01*
X3252288Y-44297600D01*
X3213583Y-44336304D01*
X3174879Y-44413714D01*
X3174879Y-44491123D01*
X3213583Y-44607238D01*
X3678040Y-45071695D01*
X3174879Y-45071695D01*
X4142498Y-42105942D02*
X4026383Y-42144647D01*
X3987679Y-42183352D01*
X3948974Y-42260761D01*
X3948974Y-42376876D01*
X3987679Y-42454285D01*
X4026383Y-42492990D01*
X4103793Y-42531695D01*
X4413431Y-42531695D01*
X4413431Y-41718895D01*
X4142498Y-41718895D01*
X4065088Y-41757600D01*
X4026383Y-41796304D01*
X3987679Y-41873714D01*
X3987679Y-41951123D01*
X4026383Y-42028533D01*
X4065088Y-42067238D01*
X4142498Y-42105942D01*
X4413431Y-42105942D01*
X3174879Y-42531695D02*
X3639336Y-42531695D01*
X3407107Y-42531695D02*
X3407107Y-41718895D01*
X3484517Y-41835009D01*
X3561926Y-41912419D01*
X3639336Y-41951123D01*
X4142498Y-39565942D02*
X4026383Y-39604647D01*
X3987679Y-39643352D01*
X3948974Y-39720761D01*
X3948974Y-39836876D01*
X3987679Y-39914285D01*
X4026383Y-39952990D01*
X4103793Y-39991695D01*
X4413431Y-39991695D01*
X4413431Y-39178895D01*
X4142498Y-39178895D01*
X4065088Y-39217600D01*
X4026383Y-39256304D01*
X3987679Y-39333714D01*
X3987679Y-39411123D01*
X4026383Y-39488533D01*
X4065088Y-39527238D01*
X4142498Y-39565942D01*
X4413431Y-39565942D01*
X3445812Y-39178895D02*
X3368402Y-39178895D01*
X3290993Y-39217600D01*
X3252288Y-39256304D01*
X3213583Y-39333714D01*
X3174879Y-39488533D01*
X3174879Y-39682057D01*
X3213583Y-39836876D01*
X3252288Y-39914285D01*
X3290993Y-39952990D01*
X3368402Y-39991695D01*
X3445812Y-39991695D01*
X3523221Y-39952990D01*
X3561926Y-39914285D01*
X3600631Y-39836876D01*
X3639336Y-39682057D01*
X3639336Y-39488533D01*
X3600631Y-39333714D01*
X3561926Y-39256304D01*
X3523221Y-39217600D01*
X3445812Y-39178895D01*
X4336021Y-37219466D02*
X3948974Y-37219466D01*
X4413431Y-37451695D02*
X4142498Y-36638895D01*
X3871564Y-37451695D01*
X3678040Y-36638895D02*
X3136174Y-36638895D01*
X3484517Y-37451695D01*
X4336021Y-34679466D02*
X3948974Y-34679466D01*
X4413431Y-34911695D02*
X4142498Y-34098895D01*
X3871564Y-34911695D01*
X3252288Y-34098895D02*
X3407107Y-34098895D01*
X3484517Y-34137600D01*
X3523221Y-34176304D01*
X3600631Y-34292419D01*
X3639336Y-34447238D01*
X3639336Y-34756876D01*
X3600631Y-34834285D01*
X3561926Y-34872990D01*
X3484517Y-34911695D01*
X3329698Y-34911695D01*
X3252288Y-34872990D01*
X3213583Y-34834285D01*
X3174879Y-34756876D01*
X3174879Y-34563352D01*
X3213583Y-34485942D01*
X3252288Y-34447238D01*
X3329698Y-34408533D01*
X3484517Y-34408533D01*
X3561926Y-34447238D01*
X3600631Y-34485942D01*
X3639336Y-34563352D01*
D12*
X13365238Y-3119603D02*
X13413619Y-3264746D01*
X13413619Y-3506651D01*
X13365238Y-3603413D01*
X13316857Y-3651794D01*
X13220095Y-3700175D01*
X13123333Y-3700175D01*
X13026571Y-3651794D01*
X12978190Y-3603413D01*
X12929809Y-3506651D01*
X12881428Y-3313127D01*
X12833047Y-3216365D01*
X12784666Y-3167984D01*
X12687904Y-3119603D01*
X12591142Y-3119603D01*
X12494380Y-3167984D01*
X12446000Y-3216365D01*
X12397619Y-3313127D01*
X12397619Y-3555032D01*
X12446000Y-3700175D01*
X12397619Y-4038841D02*
X13413619Y-4280746D01*
X12687904Y-4474270D01*
X13413619Y-4667794D01*
X12397619Y-4909699D01*
X13316857Y-5877318D02*
X13365238Y-5828937D01*
X13413619Y-5683794D01*
X13413619Y-5587032D01*
X13365238Y-5441889D01*
X13268476Y-5345127D01*
X13171714Y-5296746D01*
X12978190Y-5248365D01*
X12833047Y-5248365D01*
X12639523Y-5296746D01*
X12542761Y-5345127D01*
X12446000Y-5441889D01*
X12397619Y-5587032D01*
X12397619Y-5683794D01*
X12446000Y-5828937D01*
X12494380Y-5877318D01*
X13413619Y-6796556D02*
X13413619Y-6312746D01*
X12397619Y-6312746D01*
X13413619Y-7135222D02*
X12397619Y-7135222D01*
X13413619Y-7715794D02*
X12833047Y-7280365D01*
X12397619Y-7715794D02*
X12978190Y-7135222D01*
X10825238Y-3119603D02*
X10873619Y-3264746D01*
X10873619Y-3506651D01*
X10825238Y-3603413D01*
X10776857Y-3651794D01*
X10680095Y-3700175D01*
X10583333Y-3700175D01*
X10486571Y-3651794D01*
X10438190Y-3603413D01*
X10389809Y-3506651D01*
X10341428Y-3313127D01*
X10293047Y-3216365D01*
X10244666Y-3167984D01*
X10147904Y-3119603D01*
X10051142Y-3119603D01*
X9954380Y-3167984D01*
X9906000Y-3216365D01*
X9857619Y-3313127D01*
X9857619Y-3555032D01*
X9906000Y-3700175D01*
X9857619Y-4038841D02*
X10873619Y-4280746D01*
X10147904Y-4474270D01*
X10873619Y-4667794D01*
X9857619Y-4909699D01*
X10873619Y-5296746D02*
X9857619Y-5296746D01*
X9857619Y-5538651D01*
X9906000Y-5683794D01*
X10002761Y-5780556D01*
X10099523Y-5828937D01*
X10293047Y-5877318D01*
X10438190Y-5877318D01*
X10631714Y-5828937D01*
X10728476Y-5780556D01*
X10825238Y-5683794D01*
X10873619Y-5538651D01*
X10873619Y-5296746D01*
X10873619Y-6312746D02*
X9857619Y-6312746D01*
X9857619Y-6990080D02*
X9857619Y-7183603D01*
X9906000Y-7280365D01*
X10002761Y-7377127D01*
X10196285Y-7425508D01*
X10534952Y-7425508D01*
X10728476Y-7377127D01*
X10825238Y-7280365D01*
X10873619Y-7183603D01*
X10873619Y-6990080D01*
X10825238Y-6893318D01*
X10728476Y-6796556D01*
X10534952Y-6748175D01*
X10196285Y-6748175D01*
X10002761Y-6796556D01*
X9906000Y-6893318D01*
X9857619Y-6990080D01*
X7366000Y-3700175D02*
X7317619Y-3603413D01*
X7317619Y-3458270D01*
X7366000Y-3313127D01*
X7462761Y-3216365D01*
X7559523Y-3167984D01*
X7753047Y-3119603D01*
X7898190Y-3119603D01*
X8091714Y-3167984D01*
X8188476Y-3216365D01*
X8285238Y-3313127D01*
X8333619Y-3458270D01*
X8333619Y-3555032D01*
X8285238Y-3700175D01*
X8236857Y-3748556D01*
X7898190Y-3748556D01*
X7898190Y-3555032D01*
X8333619Y-4183984D02*
X7317619Y-4183984D01*
X8333619Y-4764556D01*
X7317619Y-4764556D01*
X8333619Y-5248365D02*
X7317619Y-5248365D01*
X7317619Y-5490270D01*
X7366000Y-5635413D01*
X7462761Y-5732175D01*
X7559523Y-5780556D01*
X7753047Y-5828937D01*
X7898190Y-5828937D01*
X8091714Y-5780556D01*
X8188476Y-5732175D01*
X8285238Y-5635413D01*
X8333619Y-5490270D01*
X8333619Y-5248365D01*
X4777619Y-3217333D02*
X5793619Y-3556000D01*
X4777619Y-3894666D01*
D11*
X4336021Y-32139466D02*
X3948974Y-32139466D01*
X4413431Y-32371695D02*
X4142498Y-31558895D01*
X3871564Y-32371695D01*
X3213583Y-31558895D02*
X3600631Y-31558895D01*
X3639336Y-31945942D01*
X3600631Y-31907238D01*
X3523221Y-31868533D01*
X3329698Y-31868533D01*
X3252288Y-31907238D01*
X3213583Y-31945942D01*
X3174879Y-32023352D01*
X3174879Y-32216876D01*
X3213583Y-32294285D01*
X3252288Y-32332990D01*
X3329698Y-32371695D01*
X3523221Y-32371695D01*
X3600631Y-32332990D01*
X3639336Y-32294285D01*
X4336021Y-29599466D02*
X3948974Y-29599466D01*
X4413431Y-29831695D02*
X4142498Y-29018895D01*
X3871564Y-29831695D01*
X3252288Y-29289828D02*
X3252288Y-29831695D01*
X3445812Y-28980190D02*
X3639336Y-29560761D01*
X3136174Y-29560761D01*
X4336021Y-27059466D02*
X3948974Y-27059466D01*
X4413431Y-27291695D02*
X4142498Y-26478895D01*
X3871564Y-27291695D01*
X3678040Y-26478895D02*
X3174879Y-26478895D01*
X3445812Y-26788533D01*
X3329698Y-26788533D01*
X3252288Y-26827238D01*
X3213583Y-26865942D01*
X3174879Y-26943352D01*
X3174879Y-27136876D01*
X3213583Y-27214285D01*
X3252288Y-27252990D01*
X3329698Y-27291695D01*
X3561926Y-27291695D01*
X3639336Y-27252990D01*
X3678040Y-27214285D01*
X3149600Y-23764723D02*
X3110895Y-23687314D01*
X3110895Y-23571200D01*
X3149600Y-23455085D01*
X3227009Y-23377676D01*
X3304419Y-23338971D01*
X3459238Y-23300266D01*
X3575352Y-23300266D01*
X3730171Y-23338971D01*
X3807580Y-23377676D01*
X3884990Y-23455085D01*
X3923695Y-23571200D01*
X3923695Y-23648609D01*
X3884990Y-23764723D01*
X3846285Y-23803428D01*
X3575352Y-23803428D01*
X3575352Y-23648609D01*
X3923695Y-24151771D02*
X3110895Y-24151771D01*
X3923695Y-24616228D01*
X3110895Y-24616228D01*
X3923695Y-25003276D02*
X3110895Y-25003276D01*
X3110895Y-25196800D01*
X3149600Y-25312914D01*
X3227009Y-25390323D01*
X3304419Y-25429028D01*
X3459238Y-25467733D01*
X3575352Y-25467733D01*
X3730171Y-25429028D01*
X3807580Y-25390323D01*
X3884990Y-25312914D01*
X3923695Y-25196800D01*
X3923695Y-25003276D01*
X4877888Y-21437600D02*
X4955298Y-21398895D01*
X5071412Y-21398895D01*
X5187526Y-21437600D01*
X5264936Y-21515009D01*
X5303640Y-21592419D01*
X5342345Y-21747238D01*
X5342345Y-21863352D01*
X5303640Y-22018171D01*
X5264936Y-22095580D01*
X5187526Y-22172990D01*
X5071412Y-22211695D01*
X4994002Y-22211695D01*
X4877888Y-22172990D01*
X4839183Y-22134285D01*
X4839183Y-21863352D01*
X4994002Y-21863352D01*
X4490840Y-22211695D02*
X4490840Y-21398895D01*
X4026383Y-22211695D01*
X4026383Y-21398895D01*
X3639336Y-22211695D02*
X3639336Y-21398895D01*
X3445812Y-21398895D01*
X3329698Y-21437600D01*
X3252288Y-21515009D01*
X3213583Y-21592419D01*
X3174879Y-21747238D01*
X3174879Y-21863352D01*
X3213583Y-22018171D01*
X3252288Y-22095580D01*
X3329698Y-22172990D01*
X3445812Y-22211695D01*
X3639336Y-22211695D01*
X4336021Y-19439466D02*
X3948974Y-19439466D01*
X4413431Y-19671695D02*
X4142498Y-18858895D01*
X3871564Y-19671695D01*
X3639336Y-18936304D02*
X3600631Y-18897600D01*
X3523221Y-18858895D01*
X3329698Y-18858895D01*
X3252288Y-18897600D01*
X3213583Y-18936304D01*
X3174879Y-19013714D01*
X3174879Y-19091123D01*
X3213583Y-19207238D01*
X3678040Y-19671695D01*
X3174879Y-19671695D01*
X4336021Y-16899466D02*
X3948974Y-16899466D01*
X4413431Y-17131695D02*
X4142498Y-16318895D01*
X3871564Y-17131695D01*
X3174879Y-17131695D02*
X3639336Y-17131695D01*
X3407107Y-17131695D02*
X3407107Y-16318895D01*
X3484517Y-16435009D01*
X3561926Y-16512419D01*
X3639336Y-16551123D01*
X4336021Y-14359466D02*
X3948974Y-14359466D01*
X4413431Y-14591695D02*
X4142498Y-13778895D01*
X3871564Y-14591695D01*
X3445812Y-13778895D02*
X3368402Y-13778895D01*
X3290993Y-13817600D01*
X3252288Y-13856304D01*
X3213583Y-13933714D01*
X3174879Y-14088533D01*
X3174879Y-14282057D01*
X3213583Y-14436876D01*
X3252288Y-14514285D01*
X3290993Y-14552990D01*
X3368402Y-14591695D01*
X3445812Y-14591695D01*
X3523221Y-14552990D01*
X3561926Y-14514285D01*
X3600631Y-14436876D01*
X3639336Y-14282057D01*
X3639336Y-14088533D01*
X3600631Y-13933714D01*
X3561926Y-13856304D01*
X3523221Y-13817600D01*
X3445812Y-13778895D01*
X5884212Y-12051695D02*
X5884212Y-11238895D01*
X5419755Y-12051695D01*
X5419755Y-11238895D01*
X4568250Y-12051695D02*
X4839183Y-11664647D01*
X5032707Y-12051695D02*
X5032707Y-11238895D01*
X4723069Y-11238895D01*
X4645660Y-11277600D01*
X4606955Y-11316304D01*
X4568250Y-11393714D01*
X4568250Y-11509828D01*
X4606955Y-11587238D01*
X4645660Y-11625942D01*
X4723069Y-11664647D01*
X5032707Y-11664647D01*
X4258612Y-12012990D02*
X4142498Y-12051695D01*
X3948974Y-12051695D01*
X3871564Y-12012990D01*
X3832860Y-11974285D01*
X3794155Y-11896876D01*
X3794155Y-11819466D01*
X3832860Y-11742057D01*
X3871564Y-11703352D01*
X3948974Y-11664647D01*
X4103793Y-11625942D01*
X4181202Y-11587238D01*
X4219907Y-11548533D01*
X4258612Y-11471123D01*
X4258612Y-11393714D01*
X4219907Y-11316304D01*
X4181202Y-11277600D01*
X4103793Y-11238895D01*
X3910269Y-11238895D01*
X3794155Y-11277600D01*
X3561926Y-11238895D02*
X3097469Y-11238895D01*
X3329698Y-12051695D02*
X3329698Y-11238895D01*
X4723069Y-9434285D02*
X4761774Y-9472990D01*
X4877888Y-9511695D01*
X4955298Y-9511695D01*
X5071412Y-9472990D01*
X5148821Y-9395580D01*
X5187526Y-9318171D01*
X5226231Y-9163352D01*
X5226231Y-9047238D01*
X5187526Y-8892419D01*
X5148821Y-8815009D01*
X5071412Y-8737600D01*
X4955298Y-8698895D01*
X4877888Y-8698895D01*
X4761774Y-8737600D01*
X4723069Y-8776304D01*
X3948974Y-9511695D02*
X4413431Y-9511695D01*
X4181202Y-9511695D02*
X4181202Y-8698895D01*
X4258612Y-8815009D01*
X4336021Y-8892419D01*
X4413431Y-8931123D01*
X3213583Y-8698895D02*
X3600631Y-8698895D01*
X3639336Y-9085942D01*
X3600631Y-9047238D01*
X3523221Y-9008533D01*
X3329698Y-9008533D01*
X3252288Y-9047238D01*
X3213583Y-9085942D01*
X3174879Y-9163352D01*
X3174879Y-9356876D01*
X3213583Y-9434285D01*
X3252288Y-9472990D01*
X3329698Y-9511695D01*
X3523221Y-9511695D01*
X3600631Y-9472990D01*
X3639336Y-9434285D01*
X3110895Y-517676D02*
X3110895Y-1020838D01*
X3420533Y-749904D01*
X3420533Y-866019D01*
X3459238Y-943428D01*
X3497942Y-982133D01*
X3575352Y-1020838D01*
X3768876Y-1020838D01*
X3846285Y-982133D01*
X3884990Y-943428D01*
X3923695Y-866019D01*
X3923695Y-633790D01*
X3884990Y-556380D01*
X3846285Y-517676D01*
X3110895Y-1253066D02*
X3923695Y-1524000D01*
X3110895Y-1794933D01*
X3110895Y-1988457D02*
X3110895Y-2491619D01*
X3420533Y-2220685D01*
X3420533Y-2336800D01*
X3459238Y-2414209D01*
X3497942Y-2452914D01*
X3575352Y-2491619D01*
X3768876Y-2491619D01*
X3846285Y-2452914D01*
X3884990Y-2414209D01*
X3923695Y-2336800D01*
X3923695Y-2104571D01*
X3884990Y-2027161D01*
X3846285Y-1988457D01*
X4723069Y-6894285D02*
X4761774Y-6932990D01*
X4877888Y-6971695D01*
X4955298Y-6971695D01*
X5071412Y-6932990D01*
X5148821Y-6855580D01*
X5187526Y-6778171D01*
X5226231Y-6623352D01*
X5226231Y-6507238D01*
X5187526Y-6352419D01*
X5148821Y-6275009D01*
X5071412Y-6197600D01*
X4955298Y-6158895D01*
X4877888Y-6158895D01*
X4761774Y-6197600D01*
X4723069Y-6236304D01*
X3948974Y-6971695D02*
X4413431Y-6971695D01*
X4181202Y-6971695D02*
X4181202Y-6158895D01*
X4258612Y-6275009D01*
X4336021Y-6352419D01*
X4413431Y-6391123D01*
X3252288Y-6429828D02*
X3252288Y-6971695D01*
X3445812Y-6120190D02*
X3639336Y-6700761D01*
X3136174Y-6700761D01*
X3846285Y-3541485D02*
X3884990Y-3502780D01*
X3923695Y-3386666D01*
X3923695Y-3309257D01*
X3884990Y-3193142D01*
X3807580Y-3115733D01*
X3730171Y-3077028D01*
X3575352Y-3038323D01*
X3459238Y-3038323D01*
X3304419Y-3077028D01*
X3227009Y-3115733D01*
X3149600Y-3193142D01*
X3110895Y-3309257D01*
X3110895Y-3386666D01*
X3149600Y-3502780D01*
X3188304Y-3541485D01*
X3923695Y-4315580D02*
X3923695Y-3851123D01*
X3923695Y-4083352D02*
X3110895Y-4083352D01*
X3227009Y-4005942D01*
X3304419Y-3928533D01*
X3343123Y-3851123D01*
X3110895Y-4586514D02*
X3110895Y-5089676D01*
X3420533Y-4818742D01*
X3420533Y-4934857D01*
X3459238Y-5012266D01*
X3497942Y-5050971D01*
X3575352Y-5089676D01*
X3768876Y-5089676D01*
X3846285Y-5050971D01*
X3884990Y-5012266D01*
X3923695Y-4934857D01*
X3923695Y-4702628D01*
X3884990Y-4625219D01*
X3846285Y-4586514D01*
X10634133Y-27373942D02*
X10518019Y-27412647D01*
X10479314Y-27451352D01*
X10440609Y-27528761D01*
X10440609Y-27644876D01*
X10479314Y-27722285D01*
X10518019Y-27760990D01*
X10595428Y-27799695D01*
X10905066Y-27799695D01*
X10905066Y-26986895D01*
X10634133Y-26986895D01*
X10556723Y-27025600D01*
X10518019Y-27064304D01*
X10479314Y-27141714D01*
X10479314Y-27219123D01*
X10518019Y-27296533D01*
X10556723Y-27335238D01*
X10634133Y-27373942D01*
X10905066Y-27373942D01*
X9937447Y-26986895D02*
X9782628Y-26986895D01*
X9705219Y-27025600D01*
X9627809Y-27103009D01*
X9589104Y-27257828D01*
X9589104Y-27528761D01*
X9627809Y-27683580D01*
X9705219Y-27760990D01*
X9782628Y-27799695D01*
X9937447Y-27799695D01*
X10014857Y-27760990D01*
X10092266Y-27683580D01*
X10130971Y-27528761D01*
X10130971Y-27257828D01*
X10092266Y-27103009D01*
X10014857Y-27025600D01*
X9937447Y-26986895D01*
X9085942Y-26986895D02*
X8931123Y-26986895D01*
X8853714Y-27025600D01*
X8776304Y-27103009D01*
X8737600Y-27257828D01*
X8737600Y-27528761D01*
X8776304Y-27683580D01*
X8853714Y-27760990D01*
X8931123Y-27799695D01*
X9085942Y-27799695D01*
X9163352Y-27760990D01*
X9240761Y-27683580D01*
X9279466Y-27528761D01*
X9279466Y-27257828D01*
X9240761Y-27103009D01*
X9163352Y-27025600D01*
X9085942Y-26986895D01*
X8505371Y-26986895D02*
X8040914Y-26986895D01*
X8273142Y-27799695D02*
X8273142Y-26986895D01*
X7615161Y-26986895D02*
X7537752Y-26986895D01*
X7460342Y-27025600D01*
X7421638Y-27064304D01*
X7382933Y-27141714D01*
X7344228Y-27296533D01*
X7344228Y-27490057D01*
X7382933Y-27644876D01*
X7421638Y-27722285D01*
X7460342Y-27760990D01*
X7537752Y-27799695D01*
X7615161Y-27799695D01*
X7692571Y-27760990D01*
X7731276Y-27722285D01*
X7769980Y-27644876D01*
X7808685Y-27490057D01*
X7808685Y-27296533D01*
X7769980Y-27141714D01*
X7731276Y-27064304D01*
X7692571Y-27025600D01*
X7615161Y-26986895D01*
D13*
X5733142Y-26228523D02*
X6458857Y-26228523D01*
X6096000Y-26228523D02*
X6096000Y-24958523D01*
X6216952Y-25139952D01*
X6337904Y-25260904D01*
X6458857Y-25321380D01*
X12252476Y-24958523D02*
X12131523Y-24958523D01*
X12010571Y-25019000D01*
X11950095Y-25079476D01*
X11889619Y-25200428D01*
X11829142Y-25442333D01*
X11829142Y-25744714D01*
X11889619Y-25986619D01*
X11950095Y-26107571D01*
X12010571Y-26168047D01*
X12131523Y-26228523D01*
X12252476Y-26228523D01*
X12373428Y-26168047D01*
X12433904Y-26107571D01*
X12494380Y-25986619D01*
X12554857Y-25744714D01*
X12554857Y-25442333D01*
X12494380Y-25200428D01*
X12433904Y-25079476D01*
X12373428Y-25019000D01*
X12252476Y-24958523D01*
D11*
X13208000Y-26670000D02*
X13208000Y-24638000D01*
X11176000Y-26670000D02*
X13208000Y-26670000D01*
X13208000Y-24638000D02*
X11176000Y-24638000D01*
X5080000Y-26670000D02*
X7112000Y-26670000D01*
X5080000Y-24638000D02*
X5080000Y-26670000D01*
X7112000Y-24638000D02*
X5080000Y-24638000D01*
D14*
G36*
X6612931Y-47291814D02*
G01*
X7057555Y-47375635D01*
X7185053Y-47684920D01*
X7312551Y-47994206D01*
X7060246Y-48365246D01*
X6989996Y-48469157D01*
X6927272Y-48563087D01*
X6874938Y-48642652D01*
X6835857Y-48703470D01*
X6812893Y-48741157D01*
X6807942Y-48751421D01*
X6820676Y-48769910D01*
X6855882Y-48809420D01*
X6909062Y-48865522D01*
X6975718Y-48933787D01*
X7051354Y-49009786D01*
X7131472Y-49089092D01*
X7211574Y-49167275D01*
X7287164Y-49239907D01*
X7353745Y-49302559D01*
X7406818Y-49350803D01*
X7441887Y-49380210D01*
X7453623Y-49387241D01*
X7475260Y-49377123D01*
X7522662Y-49348759D01*
X7591193Y-49305129D01*
X7676215Y-49249218D01*
X7773093Y-49184006D01*
X7828350Y-49146219D01*
X7929248Y-49077343D01*
X8020299Y-49016140D01*
X8096970Y-48965578D01*
X8154728Y-48928628D01*
X8189043Y-48908258D01*
X8196254Y-48905197D01*
X8216748Y-48912136D01*
X8264513Y-48931051D01*
X8332832Y-48959087D01*
X8414989Y-48993391D01*
X8504270Y-49031109D01*
X8593958Y-49069387D01*
X8677338Y-49105370D01*
X8747694Y-49136206D01*
X8798310Y-49159039D01*
X8822471Y-49171017D01*
X8823422Y-49171724D01*
X8828036Y-49190531D01*
X8838328Y-49240618D01*
X8853287Y-49316793D01*
X8871901Y-49413865D01*
X8893159Y-49526643D01*
X8905418Y-49592442D01*
X8928362Y-49712950D01*
X8950195Y-49821797D01*
X8969722Y-49913476D01*
X8985748Y-49982481D01*
X8997079Y-50023304D01*
X9000674Y-50031511D01*
X9025006Y-50039548D01*
X9079959Y-50046033D01*
X9159108Y-50050970D01*
X9256026Y-50054364D01*
X9364287Y-50056218D01*
X9477465Y-50056538D01*
X9589135Y-50055327D01*
X9692868Y-50052590D01*
X9782241Y-50048331D01*
X9850826Y-50042555D01*
X9892197Y-50035267D01*
X9900810Y-50030895D01*
X9911133Y-50004764D01*
X9925892Y-49949393D01*
X9943352Y-49872107D01*
X9961780Y-49780230D01*
X9967741Y-49748158D01*
X9996066Y-49593524D01*
X10018876Y-49471375D01*
X10037080Y-49377673D01*
X10051583Y-49308384D01*
X10063292Y-49259471D01*
X10073115Y-49226897D01*
X10081956Y-49206628D01*
X10090724Y-49194626D01*
X10092457Y-49192947D01*
X10120371Y-49176184D01*
X10174695Y-49150614D01*
X10248777Y-49118788D01*
X10335965Y-49083260D01*
X10429608Y-49046583D01*
X10523052Y-49011311D01*
X10609647Y-48979996D01*
X10682740Y-48955193D01*
X10735678Y-48939454D01*
X10761811Y-48935332D01*
X10762726Y-48935676D01*
X10784086Y-48949641D01*
X10831084Y-48981322D01*
X10898827Y-49027391D01*
X10982423Y-49084518D01*
X11076982Y-49149373D01*
X11103854Y-49167843D01*
X11201275Y-49233699D01*
X11290163Y-49291650D01*
X11365412Y-49338538D01*
X11421920Y-49371207D01*
X11454581Y-49386500D01*
X11458593Y-49387241D01*
X11479684Y-49374392D01*
X11521464Y-49338888D01*
X11579445Y-49285293D01*
X11649135Y-49218171D01*
X11726045Y-49142087D01*
X11805683Y-49061604D01*
X11883561Y-48981287D01*
X11955186Y-48905699D01*
X12016070Y-48839405D01*
X12061721Y-48786969D01*
X12087650Y-48752955D01*
X12091883Y-48743545D01*
X12081912Y-48721643D01*
X12055020Y-48676800D01*
X12015736Y-48616321D01*
X11984117Y-48569789D01*
X11926098Y-48485475D01*
X11857784Y-48385626D01*
X11789579Y-48285473D01*
X11753075Y-48231627D01*
X11629800Y-48049371D01*
X11712520Y-47896381D01*
X11748759Y-47826682D01*
X11776926Y-47767414D01*
X11792991Y-47727311D01*
X11795226Y-47717103D01*
X11778722Y-47704829D01*
X11732082Y-47680613D01*
X11659609Y-47646263D01*
X11565606Y-47603588D01*
X11454374Y-47554394D01*
X11330215Y-47500490D01*
X11197432Y-47443684D01*
X11060327Y-47385782D01*
X10923202Y-47328593D01*
X10790358Y-47273924D01*
X10666098Y-47223584D01*
X10554725Y-47179380D01*
X10460539Y-47143119D01*
X10387844Y-47116609D01*
X10340941Y-47101658D01*
X10324833Y-47099254D01*
X10304286Y-47118311D01*
X10270933Y-47160036D01*
X10231702Y-47215706D01*
X10228599Y-47220378D01*
X10113423Y-47364264D01*
X9979053Y-47480283D01*
X9829784Y-47567430D01*
X9669913Y-47624699D01*
X9503737Y-47651086D01*
X9335552Y-47645585D01*
X9169655Y-47607190D01*
X9010342Y-47534895D01*
X8975487Y-47513626D01*
X8834737Y-47402996D01*
X8721714Y-47272302D01*
X8637003Y-47126064D01*
X8581194Y-46968808D01*
X8554874Y-46805057D01*
X8558630Y-46639333D01*
X8593050Y-46476162D01*
X8658723Y-46320065D01*
X8756235Y-46175567D01*
X8795813Y-46130869D01*
X8919703Y-46017112D01*
X9050124Y-45934218D01*
X9196315Y-45877356D01*
X9341088Y-45845687D01*
X9503860Y-45837869D01*
X9667440Y-45863938D01*
X9826298Y-45921245D01*
X9974906Y-46007144D01*
X10107735Y-46118986D01*
X10219256Y-46254123D01*
X10231011Y-46271883D01*
X10269508Y-46328150D01*
X10302863Y-46370923D01*
X10324160Y-46391372D01*
X10324833Y-46391669D01*
X10347871Y-46387279D01*
X10400157Y-46369876D01*
X10477390Y-46341268D01*
X10575268Y-46303265D01*
X10689491Y-46257674D01*
X10815758Y-46206303D01*
X10949767Y-46150962D01*
X11087218Y-46093458D01*
X11223808Y-46035601D01*
X11355237Y-45979198D01*
X11477205Y-45926058D01*
X11585409Y-45877990D01*
X11675549Y-45836801D01*
X11743323Y-45804301D01*
X11784430Y-45782297D01*
X11795226Y-45773436D01*
X11786819Y-45746360D01*
X11764272Y-45695697D01*
X11731613Y-45630183D01*
X11712520Y-45594159D01*
X11629800Y-45441168D01*
X11753075Y-45258912D01*
X11816228Y-45165875D01*
X11885727Y-45064015D01*
X11951165Y-44968562D01*
X11984117Y-44920750D01*
X12029273Y-44853505D01*
X12065057Y-44796564D01*
X12086938Y-44757354D01*
X12091563Y-44744619D01*
X12079085Y-44726083D01*
X12044252Y-44685059D01*
X11990678Y-44625525D01*
X11921983Y-44551458D01*
X11841781Y-44466835D01*
X11790286Y-44413315D01*
X11698286Y-44319681D01*
X11615999Y-44238759D01*
X11546945Y-44173823D01*
X11494644Y-44128142D01*
X11462616Y-44104989D01*
X11456116Y-44102768D01*
X11431394Y-44113076D01*
X11381405Y-44141561D01*
X11311212Y-44185063D01*
X11225875Y-44240423D01*
X11130456Y-44304480D01*
X11103854Y-44322697D01*
X11007167Y-44389073D01*
X10920117Y-44448622D01*
X10847595Y-44498016D01*
X10794493Y-44533925D01*
X10765703Y-44553019D01*
X10762726Y-44554864D01*
X10739782Y-44552105D01*
X10689336Y-44537462D01*
X10618041Y-44513487D01*
X10532547Y-44482734D01*
X10439507Y-44447756D01*
X10345574Y-44411107D01*
X10257399Y-44375339D01*
X10181634Y-44343006D01*
X10124931Y-44316662D01*
X10093943Y-44298858D01*
X10092457Y-44297593D01*
X10083601Y-44286706D01*
X10074843Y-44268318D01*
X10065277Y-44238394D01*
X10053996Y-44192897D01*
X10040093Y-44127791D01*
X10022663Y-44039039D01*
X10000798Y-43922607D01*
X9973591Y-43774458D01*
X9967741Y-43742382D01*
X9949374Y-43647314D01*
X9931405Y-43564435D01*
X9915569Y-43501070D01*
X9903600Y-43464542D01*
X9900810Y-43459644D01*
X9876072Y-43451573D01*
X9820790Y-43445013D01*
X9741389Y-43439967D01*
X9644296Y-43436441D01*
X9535938Y-43434439D01*
X9422740Y-43433964D01*
X9311128Y-43435023D01*
X9207529Y-43437618D01*
X9118368Y-43441754D01*
X9050072Y-43447437D01*
X9009066Y-43454669D01*
X9000674Y-43459029D01*
X8992208Y-43483302D01*
X8978435Y-43538574D01*
X8960550Y-43619338D01*
X8939748Y-43720088D01*
X8917223Y-43835317D01*
X8905418Y-43898098D01*
X8883151Y-44017213D01*
X8862979Y-44123435D01*
X8845915Y-44211573D01*
X8832969Y-44276434D01*
X8825155Y-44312826D01*
X8823422Y-44318816D01*
X8803890Y-44328939D01*
X8756843Y-44350338D01*
X8689003Y-44380161D01*
X8607091Y-44415555D01*
X8517828Y-44453668D01*
X8427935Y-44491647D01*
X8344135Y-44526640D01*
X8273147Y-44555794D01*
X8221694Y-44576257D01*
X8196497Y-44585177D01*
X8195396Y-44585343D01*
X8175519Y-44575231D01*
X8129777Y-44546883D01*
X8062717Y-44503277D01*
X7978884Y-44447394D01*
X7882826Y-44382213D01*
X7827650Y-44344321D01*
X7726481Y-44275275D01*
X7634630Y-44213950D01*
X7556744Y-44163337D01*
X7497469Y-44126429D01*
X7461451Y-44106218D01*
X7453377Y-44103299D01*
X7434584Y-44115847D01*
X7394457Y-44150537D01*
X7337493Y-44202937D01*
X7268185Y-44268616D01*
X7191031Y-44343144D01*
X7110525Y-44422087D01*
X7031163Y-44501017D01*
X6957440Y-44575500D01*
X6893852Y-44641106D01*
X6844894Y-44693404D01*
X6815061Y-44727961D01*
X6807942Y-44739522D01*
X6817953Y-44758346D01*
X6846078Y-44803369D01*
X6889454Y-44870213D01*
X6945218Y-44954501D01*
X7010506Y-45051856D01*
X7060246Y-45125293D01*
X7312551Y-45496333D01*
X7057555Y-46114905D01*
X6612931Y-46198725D01*
X6168307Y-46282546D01*
X6168307Y-47207994D01*
X6612931Y-47291814D01*
G37*
X6612931Y-47291814D02*
X7057555Y-47375635D01*
X7185053Y-47684920D01*
X7312551Y-47994206D01*
X7060246Y-48365246D01*
X6989996Y-48469157D01*
X6927272Y-48563087D01*
X6874938Y-48642652D01*
X6835857Y-48703470D01*
X6812893Y-48741157D01*
X6807942Y-48751421D01*
X6820676Y-48769910D01*
X6855882Y-48809420D01*
X6909062Y-48865522D01*
X6975718Y-48933787D01*
X7051354Y-49009786D01*
X7131472Y-49089092D01*
X7211574Y-49167275D01*
X7287164Y-49239907D01*
X7353745Y-49302559D01*
X7406818Y-49350803D01*
X7441887Y-49380210D01*
X7453623Y-49387241D01*
X7475260Y-49377123D01*
X7522662Y-49348759D01*
X7591193Y-49305129D01*
X7676215Y-49249218D01*
X7773093Y-49184006D01*
X7828350Y-49146219D01*
X7929248Y-49077343D01*
X8020299Y-49016140D01*
X8096970Y-48965578D01*
X8154728Y-48928628D01*
X8189043Y-48908258D01*
X8196254Y-48905197D01*
X8216748Y-48912136D01*
X8264513Y-48931051D01*
X8332832Y-48959087D01*
X8414989Y-48993391D01*
X8504270Y-49031109D01*
X8593958Y-49069387D01*
X8677338Y-49105370D01*
X8747694Y-49136206D01*
X8798310Y-49159039D01*
X8822471Y-49171017D01*
X8823422Y-49171724D01*
X8828036Y-49190531D01*
X8838328Y-49240618D01*
X8853287Y-49316793D01*
X8871901Y-49413865D01*
X8893159Y-49526643D01*
X8905418Y-49592442D01*
X8928362Y-49712950D01*
X8950195Y-49821797D01*
X8969722Y-49913476D01*
X8985748Y-49982481D01*
X8997079Y-50023304D01*
X9000674Y-50031511D01*
X9025006Y-50039548D01*
X9079959Y-50046033D01*
X9159108Y-50050970D01*
X9256026Y-50054364D01*
X9364287Y-50056218D01*
X9477465Y-50056538D01*
X9589135Y-50055327D01*
X9692868Y-50052590D01*
X9782241Y-50048331D01*
X9850826Y-50042555D01*
X9892197Y-50035267D01*
X9900810Y-50030895D01*
X9911133Y-50004764D01*
X9925892Y-49949393D01*
X9943352Y-49872107D01*
X9961780Y-49780230D01*
X9967741Y-49748158D01*
X9996066Y-49593524D01*
X10018876Y-49471375D01*
X10037080Y-49377673D01*
X10051583Y-49308384D01*
X10063292Y-49259471D01*
X10073115Y-49226897D01*
X10081956Y-49206628D01*
X10090724Y-49194626D01*
X10092457Y-49192947D01*
X10120371Y-49176184D01*
X10174695Y-49150614D01*
X10248777Y-49118788D01*
X10335965Y-49083260D01*
X10429608Y-49046583D01*
X10523052Y-49011311D01*
X10609647Y-48979996D01*
X10682740Y-48955193D01*
X10735678Y-48939454D01*
X10761811Y-48935332D01*
X10762726Y-48935676D01*
X10784086Y-48949641D01*
X10831084Y-48981322D01*
X10898827Y-49027391D01*
X10982423Y-49084518D01*
X11076982Y-49149373D01*
X11103854Y-49167843D01*
X11201275Y-49233699D01*
X11290163Y-49291650D01*
X11365412Y-49338538D01*
X11421920Y-49371207D01*
X11454581Y-49386500D01*
X11458593Y-49387241D01*
X11479684Y-49374392D01*
X11521464Y-49338888D01*
X11579445Y-49285293D01*
X11649135Y-49218171D01*
X11726045Y-49142087D01*
X11805683Y-49061604D01*
X11883561Y-48981287D01*
X11955186Y-48905699D01*
X12016070Y-48839405D01*
X12061721Y-48786969D01*
X12087650Y-48752955D01*
X12091883Y-48743545D01*
X12081912Y-48721643D01*
X12055020Y-48676800D01*
X12015736Y-48616321D01*
X11984117Y-48569789D01*
X11926098Y-48485475D01*
X11857784Y-48385626D01*
X11789579Y-48285473D01*
X11753075Y-48231627D01*
X11629800Y-48049371D01*
X11712520Y-47896381D01*
X11748759Y-47826682D01*
X11776926Y-47767414D01*
X11792991Y-47727311D01*
X11795226Y-47717103D01*
X11778722Y-47704829D01*
X11732082Y-47680613D01*
X11659609Y-47646263D01*
X11565606Y-47603588D01*
X11454374Y-47554394D01*
X11330215Y-47500490D01*
X11197432Y-47443684D01*
X11060327Y-47385782D01*
X10923202Y-47328593D01*
X10790358Y-47273924D01*
X10666098Y-47223584D01*
X10554725Y-47179380D01*
X10460539Y-47143119D01*
X10387844Y-47116609D01*
X10340941Y-47101658D01*
X10324833Y-47099254D01*
X10304286Y-47118311D01*
X10270933Y-47160036D01*
X10231702Y-47215706D01*
X10228599Y-47220378D01*
X10113423Y-47364264D01*
X9979053Y-47480283D01*
X9829784Y-47567430D01*
X9669913Y-47624699D01*
X9503737Y-47651086D01*
X9335552Y-47645585D01*
X9169655Y-47607190D01*
X9010342Y-47534895D01*
X8975487Y-47513626D01*
X8834737Y-47402996D01*
X8721714Y-47272302D01*
X8637003Y-47126064D01*
X8581194Y-46968808D01*
X8554874Y-46805057D01*
X8558630Y-46639333D01*
X8593050Y-46476162D01*
X8658723Y-46320065D01*
X8756235Y-46175567D01*
X8795813Y-46130869D01*
X8919703Y-46017112D01*
X9050124Y-45934218D01*
X9196315Y-45877356D01*
X9341088Y-45845687D01*
X9503860Y-45837869D01*
X9667440Y-45863938D01*
X9826298Y-45921245D01*
X9974906Y-46007144D01*
X10107735Y-46118986D01*
X10219256Y-46254123D01*
X10231011Y-46271883D01*
X10269508Y-46328150D01*
X10302863Y-46370923D01*
X10324160Y-46391372D01*
X10324833Y-46391669D01*
X10347871Y-46387279D01*
X10400157Y-46369876D01*
X10477390Y-46341268D01*
X10575268Y-46303265D01*
X10689491Y-46257674D01*
X10815758Y-46206303D01*
X10949767Y-46150962D01*
X11087218Y-46093458D01*
X11223808Y-46035601D01*
X11355237Y-45979198D01*
X11477205Y-45926058D01*
X11585409Y-45877990D01*
X11675549Y-45836801D01*
X11743323Y-45804301D01*
X11784430Y-45782297D01*
X11795226Y-45773436D01*
X11786819Y-45746360D01*
X11764272Y-45695697D01*
X11731613Y-45630183D01*
X11712520Y-45594159D01*
X11629800Y-45441168D01*
X11753075Y-45258912D01*
X11816228Y-45165875D01*
X11885727Y-45064015D01*
X11951165Y-44968562D01*
X11984117Y-44920750D01*
X12029273Y-44853505D01*
X12065057Y-44796564D01*
X12086938Y-44757354D01*
X12091563Y-44744619D01*
X12079085Y-44726083D01*
X12044252Y-44685059D01*
X11990678Y-44625525D01*
X11921983Y-44551458D01*
X11841781Y-44466835D01*
X11790286Y-44413315D01*
X11698286Y-44319681D01*
X11615999Y-44238759D01*
X11546945Y-44173823D01*
X11494644Y-44128142D01*
X11462616Y-44104989D01*
X11456116Y-44102768D01*
X11431394Y-44113076D01*
X11381405Y-44141561D01*
X11311212Y-44185063D01*
X11225875Y-44240423D01*
X11130456Y-44304480D01*
X11103854Y-44322697D01*
X11007167Y-44389073D01*
X10920117Y-44448622D01*
X10847595Y-44498016D01*
X10794493Y-44533925D01*
X10765703Y-44553019D01*
X10762726Y-44554864D01*
X10739782Y-44552105D01*
X10689336Y-44537462D01*
X10618041Y-44513487D01*
X10532547Y-44482734D01*
X10439507Y-44447756D01*
X10345574Y-44411107D01*
X10257399Y-44375339D01*
X10181634Y-44343006D01*
X10124931Y-44316662D01*
X10093943Y-44298858D01*
X10092457Y-44297593D01*
X10083601Y-44286706D01*
X10074843Y-44268318D01*
X10065277Y-44238394D01*
X10053996Y-44192897D01*
X10040093Y-44127791D01*
X10022663Y-44039039D01*
X10000798Y-43922607D01*
X9973591Y-43774458D01*
X9967741Y-43742382D01*
X9949374Y-43647314D01*
X9931405Y-43564435D01*
X9915569Y-43501070D01*
X9903600Y-43464542D01*
X9900810Y-43459644D01*
X9876072Y-43451573D01*
X9820790Y-43445013D01*
X9741389Y-43439967D01*
X9644296Y-43436441D01*
X9535938Y-43434439D01*
X9422740Y-43433964D01*
X9311128Y-43435023D01*
X9207529Y-43437618D01*
X9118368Y-43441754D01*
X9050072Y-43447437D01*
X9009066Y-43454669D01*
X9000674Y-43459029D01*
X8992208Y-43483302D01*
X8978435Y-43538574D01*
X8960550Y-43619338D01*
X8939748Y-43720088D01*
X8917223Y-43835317D01*
X8905418Y-43898098D01*
X8883151Y-44017213D01*
X8862979Y-44123435D01*
X8845915Y-44211573D01*
X8832969Y-44276434D01*
X8825155Y-44312826D01*
X8823422Y-44318816D01*
X8803890Y-44328939D01*
X8756843Y-44350338D01*
X8689003Y-44380161D01*
X8607091Y-44415555D01*
X8517828Y-44453668D01*
X8427935Y-44491647D01*
X8344135Y-44526640D01*
X8273147Y-44555794D01*
X8221694Y-44576257D01*
X8196497Y-44585177D01*
X8195396Y-44585343D01*
X8175519Y-44575231D01*
X8129777Y-44546883D01*
X8062717Y-44503277D01*
X7978884Y-44447394D01*
X7882826Y-44382213D01*
X7827650Y-44344321D01*
X7726481Y-44275275D01*
X7634630Y-44213950D01*
X7556744Y-44163337D01*
X7497469Y-44126429D01*
X7461451Y-44106218D01*
X7453377Y-44103299D01*
X7434584Y-44115847D01*
X7394457Y-44150537D01*
X7337493Y-44202937D01*
X7268185Y-44268616D01*
X7191031Y-44343144D01*
X7110525Y-44422087D01*
X7031163Y-44501017D01*
X6957440Y-44575500D01*
X6893852Y-44641106D01*
X6844894Y-44693404D01*
X6815061Y-44727961D01*
X6807942Y-44739522D01*
X6817953Y-44758346D01*
X6846078Y-44803369D01*
X6889454Y-44870213D01*
X6945218Y-44954501D01*
X7010506Y-45051856D01*
X7060246Y-45125293D01*
X7312551Y-45496333D01*
X7057555Y-46114905D01*
X6612931Y-46198725D01*
X6168307Y-46282546D01*
X6168307Y-47207994D01*
X6612931Y-47291814D01*
D15*
X18094000Y-194000D02*
X16764000Y-194000D01*
X18094000Y-1524000D02*
X18094000Y-194000D01*
X18094000Y-2794000D02*
X15434000Y-2794000D01*
X15434000Y-2794000D02*
X15434000Y-51114000D01*
X18094000Y-2794000D02*
X18094000Y-51114000D01*
X18094000Y-51114000D02*
X15434000Y-51114000D01*
X2854000Y-194000D02*
X1524000Y-194000D01*
X2854000Y-1524000D02*
X2854000Y-194000D01*
X2854000Y-2794000D02*
X194000Y-2794000D01*
X194000Y-2794000D02*
X194000Y-51114000D01*
X2854000Y-2794000D02*
X2854000Y-51114000D01*
X2854000Y-51114000D02*
X194000Y-51114000D01*
D11*
X11176000Y-26670000D02*
X11176000Y-24638000D01*
X7112000Y-26670000D02*
X11176000Y-26670000D01*
X7112000Y-24638000D02*
X7112000Y-26670000D01*
X11176000Y-24638000D02*
X7112000Y-24638000D01*
M02*
