M48
; DRILL file {KiCad (5.1.6)-1} date 06/29/20 16:56:35
; FORMAT={-:-/ absolute / inch / decimal}
; #@! TF.CreationDate,2020-06-29T16:56:35-07:00
; #@! TF.GenerationSoftware,Kicad,Pcbnew,(5.1.6)-1
FMAT,2
INCH
T1C0.0120
T2C0.0150
T3C0.0394
T4C0.0180
T5C0.0454
%
G90
G05
T1
X0.11Y-0.11
X0.1343Y-0.6146
X0.14Y-0.5
X0.14Y-1.02
X0.18Y-0.24
X0.21Y-1.01
X0.23Y-0.43
X0.23Y-0.47
X0.23Y-1.58
X0.24Y-0.19
X0.25Y-1.39
X0.2559Y-1.3409
X0.2575Y-1.3075
X0.26Y-0.55
X0.26Y-1.43
X0.27Y-0.94
X0.27Y-1.89
X0.285Y-0.62
X0.32Y-1.53
X0.33Y-1.71
X0.36Y-0.11
X0.36Y-0.24
X0.36Y-1.99
X0.37Y-0.35
X0.37Y-1.84
X0.39Y-1.24
X0.41Y-0.92
X0.42Y-0.56
X0.43Y-0.43
X0.43Y-0.47
X0.43Y-1.27
X0.44Y-1.58
X0.45Y-1.37
X0.46Y-0.28
X0.48Y-1.01
X0.48Y-1.44
X0.49Y-1.89
X0.53Y-1.7
X0.55Y-0.22
X0.55Y-0.14
X0.56Y-0.32
X0.56Y-1.01
X0.585Y-0.93
X0.59Y-1.13
X0.5904Y-0.1299
T2
X0.16Y-0.29
X0.16Y-0.65
X0.17Y-1.75
X0.17Y-1.9
X0.18Y-1.67
X0.21Y-0.65
X0.36Y-0.8
X0.38Y-0.7
X0.48Y-0.7
T3
X0.66Y-0.06
X0.66Y-0.16
X0.66Y-0.26
X0.66Y-0.36
X0.66Y-0.46
X0.66Y-0.56
X0.66Y-0.66
X0.66Y-0.76
X0.66Y-0.86
X0.66Y-0.96
X0.66Y-1.06
X0.66Y-1.16
X0.66Y-1.26
X0.66Y-1.36
X0.66Y-1.46
X0.66Y-1.56
X0.66Y-1.66
X0.66Y-1.76
X0.66Y-1.86
X0.66Y-1.96
X0.21Y-0.06
X0.31Y-0.06
X0.41Y-0.06
X0.51Y-0.06
X0.06Y-0.06
X0.06Y-0.16
X0.06Y-0.26
X0.06Y-0.36
X0.06Y-0.46
X0.06Y-0.56
X0.06Y-0.66
X0.06Y-0.76
X0.06Y-0.86
X0.06Y-0.96
X0.06Y-1.06
X0.06Y-1.16
X0.06Y-1.26
X0.06Y-1.36
X0.06Y-1.46
X0.06Y-1.56
X0.06Y-1.66
X0.06Y-1.76
X0.06Y-1.86
X0.06Y-1.96
T4
X0.73Y-1.87
X0.73Y-1.81
X0.73Y-0.24
X0.73Y-1.78
X0.73Y-0.21
X0.73Y-1.72
X0.73Y-0.18
X0.73Y-0.15
X0.73Y-1.75
X0.73Y-0.12
X0.73Y-0.27
X0.73Y-1.9
X0.73Y-0.3
X0.73Y-1.84
T5
X0.89Y-1.96
X0.19Y-0.19
X0.89Y-0.06
X0.55Y-1.91
T0
M30
