G04 #@! TF.GenerationSoftware,KiCad,Pcbnew,(5.1.6)-1*
G04 #@! TF.CreationDate,2020-06-29T16:56:31-07:00*
G04 #@! TF.ProjectId,devboard-edgerail,64657662-6f61-4726-942d-656467657261,A*
G04 #@! TF.SameCoordinates,PX7c82060PY49a3900*
G04 #@! TF.FileFunction,Copper,L2,Bot*
G04 #@! TF.FilePolarity,Positive*
%FSLAX46Y46*%
G04 Gerber Fmt 4.6, Leading zero omitted, Abs format (unit mm)*
G04 Created by KiCad (PCBNEW (5.1.6)-1) date 2020-06-29 16:56:31*
%MOMM*%
%LPD*%
G01*
G04 APERTURE LIST*
G04 #@! TA.AperFunction,EtchedComponent*
%ADD10C,0.100000*%
G04 #@! TD*
G04 #@! TA.AperFunction,ComponentPad*
%ADD11O,1.700000X1.700000*%
G04 #@! TD*
G04 #@! TA.AperFunction,ComponentPad*
%ADD12R,1.700000X1.700000*%
G04 #@! TD*
G04 #@! TA.AperFunction,SMDPad,CuDef*
%ADD13R,1.000000X1.500000*%
G04 #@! TD*
G04 #@! TA.AperFunction,ViaPad*
%ADD14C,0.609600*%
G04 #@! TD*
G04 #@! TA.AperFunction,ViaPad*
%ADD15C,0.762000*%
G04 #@! TD*
G04 #@! TA.AperFunction,Conductor*
%ADD16C,0.762000*%
G04 #@! TD*
G04 #@! TA.AperFunction,Conductor*
%ADD17C,0.508000*%
G04 #@! TD*
G04 #@! TA.AperFunction,Conductor*
%ADD18C,0.254000*%
G04 #@! TD*
G04 APERTURE END LIST*
D10*
G36*
X10044000Y-25354000D02*
G01*
X9544000Y-25354000D01*
X9544000Y-25954000D01*
X10044000Y-25954000D01*
X10044000Y-25354000D01*
G37*
D11*
X16764000Y-49784000D03*
X16764000Y-47244000D03*
X16764000Y-44704000D03*
X16764000Y-42164000D03*
X16764000Y-39624000D03*
X16764000Y-37084000D03*
X16764000Y-34544000D03*
X16764000Y-32004000D03*
X16764000Y-29464000D03*
X16764000Y-26924000D03*
X16764000Y-24384000D03*
X16764000Y-21844000D03*
X16764000Y-19304000D03*
X16764000Y-16764000D03*
X16764000Y-14224000D03*
X16764000Y-11684000D03*
X16764000Y-9144000D03*
X16764000Y-6604000D03*
X16764000Y-4064000D03*
D12*
X16764000Y-1524000D03*
D11*
X1524000Y-49784000D03*
X1524000Y-47244000D03*
X1524000Y-44704000D03*
X1524000Y-42164000D03*
X1524000Y-39624000D03*
X1524000Y-37084000D03*
X1524000Y-34544000D03*
X1524000Y-32004000D03*
X1524000Y-29464000D03*
X1524000Y-26924000D03*
X1524000Y-24384000D03*
X1524000Y-21844000D03*
X1524000Y-19304000D03*
X1524000Y-16764000D03*
X1524000Y-14224000D03*
X1524000Y-11684000D03*
X1524000Y-9144000D03*
X1524000Y-6604000D03*
X1524000Y-4064000D03*
D12*
X1524000Y-1524000D03*
D13*
X9144000Y-25654000D03*
X7844000Y-25654000D03*
X10444000Y-25654000D03*
D11*
X12954000Y-1524000D03*
X10414000Y-1524000D03*
X7874000Y-1524000D03*
D12*
X5334000Y-1524000D03*
D14*
X3556000Y-25908000D03*
X9398000Y-46736000D03*
X12446000Y-48006000D03*
X9144000Y-50546000D03*
X13462000Y-43180000D03*
X11176000Y-40132000D03*
X12192000Y-36576000D03*
X14224000Y-8128000D03*
X11684000Y-7112000D03*
X5842000Y-40132000D03*
X8128000Y-38862000D03*
X8382000Y-43434000D03*
X6858000Y-48006000D03*
X14986000Y-28702000D03*
X4572000Y-6096000D03*
X10668000Y-14224000D03*
X7239000Y-15748000D03*
X3556000Y-12700000D03*
X6604000Y-13970000D03*
X9398000Y-8890000D03*
X9144000Y-6096000D03*
X9144000Y-2794000D03*
X2794000Y-2794000D03*
X11430000Y-34798000D03*
D15*
X9652000Y-17780000D03*
D14*
X5842000Y-10922000D03*
X5842000Y-11938000D03*
X10922000Y-10922000D03*
X10922000Y-11938000D03*
X6096000Y-4826000D03*
D15*
X12192000Y-17780000D03*
X4318000Y-44450000D03*
X4318000Y-48260000D03*
X4572000Y-42418000D03*
D14*
X6500000Y-34058996D03*
X13969998Y-5588000D03*
D15*
X5334000Y-16510000D03*
D14*
X6540505Y-33210495D03*
D15*
X4064000Y-16510000D03*
X4064000Y-7366000D03*
X9144000Y-20320000D03*
D14*
X6858000Y-23876000D03*
X6350000Y-35306000D03*
X3410581Y-15609949D03*
X6604000Y-36322000D03*
X5334000Y-25654000D03*
X14224000Y-25654000D03*
X14859000Y-23622000D03*
X14995101Y-3298967D03*
X12192000Y-25654000D03*
X13970012Y-3556000D03*
X10414000Y-23368000D03*
X9906000Y-31496000D03*
X10922000Y-32258000D03*
D16*
X3302000Y-6604000D02*
X4064000Y-7366000D01*
X5334000Y-1524000D02*
X3302000Y-3556000D01*
X3302000Y-3556000D02*
X3302000Y-6604000D01*
D17*
X5334000Y-1524000D02*
X1524000Y-1524000D01*
D16*
X4698999Y-8000999D02*
X4064000Y-7366000D01*
X4572000Y-15494000D02*
X4698999Y-15367001D01*
X4698999Y-15367001D02*
X4698999Y-8000999D01*
D17*
X4064000Y-16002000D02*
X4064000Y-16510000D01*
X4572000Y-15494000D02*
X4064000Y-16002000D01*
D16*
X4064000Y-7366000D02*
X8382000Y-11684000D01*
X8382000Y-19558000D02*
X9144000Y-20320000D01*
X8382000Y-11684000D02*
X8382000Y-19558000D01*
D18*
X6858000Y-23876000D02*
X6096000Y-24638000D01*
X6096000Y-24638000D02*
X6096000Y-25908000D01*
X6350000Y-35306000D02*
X5841999Y-34797999D01*
X5841999Y-26162001D02*
X6096000Y-25908000D01*
X5841999Y-34797999D02*
X5841999Y-26162001D01*
X6858000Y-23876000D02*
X3302000Y-20320000D01*
X3302000Y-15718530D02*
X3410581Y-15609949D01*
X3302000Y-20320000D02*
X3302000Y-15718530D01*
X5334000Y-35483052D02*
X5334000Y-25654000D01*
X6172948Y-36322000D02*
X5334000Y-35483052D01*
X6604000Y-36322000D02*
X6172948Y-36322000D01*
X14224000Y-25654000D02*
X15494000Y-25654000D01*
X15494000Y-25654000D02*
X16764000Y-26924000D01*
X14859000Y-23622000D02*
X15163799Y-23317201D01*
X15163799Y-3467665D02*
X14995101Y-3298967D01*
X15163799Y-23317201D02*
X15163799Y-3467665D01*
X14604999Y-4190987D02*
X13970012Y-3556000D01*
X14604999Y-6223001D02*
X14604999Y-4190987D01*
X12192000Y-25654000D02*
X13462000Y-24384000D01*
X13462000Y-7366000D02*
X14604999Y-6223001D01*
X13462000Y-24384000D02*
X13462000Y-7366000D01*
X10414000Y-23368000D02*
X9144000Y-24638000D01*
X9144000Y-24638000D02*
X9144000Y-25654000D01*
X9906000Y-28702000D02*
X9906000Y-31496000D01*
X7844000Y-26640000D02*
X9906000Y-28702000D01*
X7844000Y-25654000D02*
X7844000Y-26640000D01*
X10444000Y-25654000D02*
X10444000Y-31094198D01*
X10444000Y-31094198D02*
X10922000Y-31572198D01*
X10922000Y-31572198D02*
X10922000Y-32258000D01*
G36*
X7014355Y-642877D02*
G01*
X6858974Y-827516D01*
X6742600Y-1038921D01*
X6669705Y-1268967D01*
X6739886Y-1460500D01*
X7810500Y-1460500D01*
X7810500Y-1440500D01*
X7937500Y-1440500D01*
X7937500Y-1460500D01*
X9008114Y-1460500D01*
X9078295Y-1268967D01*
X9005400Y-1038921D01*
X8889026Y-827516D01*
X8733645Y-642877D01*
X8723802Y-635000D01*
X9562103Y-635000D01*
X9457820Y-739283D01*
X9323102Y-940903D01*
X9230307Y-1164931D01*
X9183000Y-1402757D01*
X9183000Y-1645243D01*
X9230307Y-1883069D01*
X9323102Y-2107097D01*
X9457820Y-2308717D01*
X9629283Y-2480180D01*
X9830903Y-2614898D01*
X10054931Y-2707693D01*
X10292757Y-2755000D01*
X10535243Y-2755000D01*
X10773069Y-2707693D01*
X10997097Y-2614898D01*
X11198717Y-2480180D01*
X11370180Y-2308717D01*
X11504898Y-2107097D01*
X11597693Y-1883069D01*
X11645000Y-1645243D01*
X11645000Y-1402757D01*
X11597693Y-1164931D01*
X11504898Y-940903D01*
X11370180Y-739283D01*
X11265897Y-635000D01*
X12102103Y-635000D01*
X11997820Y-739283D01*
X11863102Y-940903D01*
X11770307Y-1164931D01*
X11723000Y-1402757D01*
X11723000Y-1645243D01*
X11770307Y-1883069D01*
X11863102Y-2107097D01*
X11997820Y-2308717D01*
X12169283Y-2480180D01*
X12370903Y-2614898D01*
X12594931Y-2707693D01*
X12832757Y-2755000D01*
X13075243Y-2755000D01*
X13313069Y-2707693D01*
X13537097Y-2614898D01*
X13738717Y-2480180D01*
X13844897Y-2374000D01*
X15531157Y-2374000D01*
X15538513Y-2448689D01*
X15560299Y-2520508D01*
X15595678Y-2586696D01*
X15643289Y-2644711D01*
X15701304Y-2692322D01*
X15767492Y-2727701D01*
X15839311Y-2749487D01*
X15914000Y-2756843D01*
X16605250Y-2755000D01*
X16700500Y-2659750D01*
X16700500Y-1587500D01*
X15628250Y-1587500D01*
X15533000Y-1682750D01*
X15531157Y-2374000D01*
X13844897Y-2374000D01*
X13910180Y-2308717D01*
X14044898Y-2107097D01*
X14137693Y-1883069D01*
X14185000Y-1645243D01*
X14185000Y-1402757D01*
X14137693Y-1164931D01*
X14044898Y-940903D01*
X13910180Y-739283D01*
X13805897Y-635000D01*
X15534998Y-635000D01*
X15531157Y-674000D01*
X15533000Y-1365250D01*
X15628250Y-1460500D01*
X16700500Y-1460500D01*
X16700500Y-1440500D01*
X16827500Y-1440500D01*
X16827500Y-1460500D01*
X16847500Y-1460500D01*
X16847500Y-1587500D01*
X16827500Y-1587500D01*
X16827500Y-2659750D01*
X16922750Y-2755000D01*
X17614000Y-2756843D01*
X17653000Y-2753002D01*
X17653000Y-3212103D01*
X17548717Y-3107820D01*
X17347097Y-2973102D01*
X17123069Y-2880307D01*
X16885243Y-2833000D01*
X16642757Y-2833000D01*
X16404931Y-2880307D01*
X16180903Y-2973102D01*
X15979283Y-3107820D01*
X15807820Y-3279283D01*
X15673102Y-3480903D01*
X15672905Y-3481378D01*
X15674256Y-3467665D01*
X15671196Y-3436598D01*
X15669793Y-3422354D01*
X15680901Y-3366512D01*
X15680901Y-3231422D01*
X15654546Y-3098927D01*
X15602849Y-2974119D01*
X15527796Y-2861795D01*
X15432273Y-2766272D01*
X15319949Y-2691219D01*
X15195141Y-2639522D01*
X15062646Y-2613167D01*
X14927556Y-2613167D01*
X14795061Y-2639522D01*
X14670253Y-2691219D01*
X14557929Y-2766272D01*
X14462406Y-2861795D01*
X14387353Y-2974119D01*
X14375695Y-3002264D01*
X14294860Y-2948252D01*
X14170052Y-2896555D01*
X14037557Y-2870200D01*
X13902467Y-2870200D01*
X13769972Y-2896555D01*
X13645164Y-2948252D01*
X13532840Y-3023305D01*
X13437317Y-3118828D01*
X13362264Y-3231152D01*
X13310567Y-3355960D01*
X13284212Y-3488455D01*
X13284212Y-3623545D01*
X13310567Y-3756040D01*
X13362264Y-3880848D01*
X13437317Y-3993172D01*
X13532840Y-4088695D01*
X13645164Y-4163748D01*
X13769972Y-4215445D01*
X13902467Y-4241800D01*
X13937391Y-4241800D01*
X14097000Y-4401409D01*
X14096999Y-6012581D01*
X13120430Y-6989150D01*
X13101053Y-7005052D01*
X13085151Y-7024429D01*
X13085150Y-7024430D01*
X13037571Y-7082405D01*
X12990400Y-7170657D01*
X12967364Y-7246598D01*
X12961352Y-7266416D01*
X12951543Y-7366000D01*
X12954001Y-7390954D01*
X12954000Y-24173579D01*
X12159380Y-24968200D01*
X12124455Y-24968200D01*
X11991960Y-24994555D01*
X11867152Y-25046252D01*
X11754828Y-25121305D01*
X11659305Y-25216828D01*
X11584252Y-25329152D01*
X11532555Y-25453960D01*
X11506200Y-25586455D01*
X11506200Y-25721545D01*
X11532555Y-25854040D01*
X11584252Y-25978848D01*
X11659305Y-26091172D01*
X11754828Y-26186695D01*
X11867152Y-26261748D01*
X11991960Y-26313445D01*
X12124455Y-26339800D01*
X12259545Y-26339800D01*
X12392040Y-26313445D01*
X12516848Y-26261748D01*
X12629172Y-26186695D01*
X12724695Y-26091172D01*
X12799748Y-25978848D01*
X12851445Y-25854040D01*
X12877800Y-25721545D01*
X12877800Y-25686620D01*
X13803571Y-24760850D01*
X13822948Y-24744948D01*
X13866972Y-24691304D01*
X13886429Y-24667596D01*
X13933600Y-24579345D01*
X13933601Y-24579342D01*
X13962649Y-24483585D01*
X13970000Y-24408947D01*
X13970000Y-24408945D01*
X13972457Y-24384001D01*
X13970000Y-24359057D01*
X13970000Y-7576420D01*
X14655800Y-6890620D01*
X14655799Y-22963864D01*
X14534152Y-23014252D01*
X14421828Y-23089305D01*
X14326305Y-23184828D01*
X14251252Y-23297152D01*
X14199555Y-23421960D01*
X14173200Y-23554455D01*
X14173200Y-23689545D01*
X14199555Y-23822040D01*
X14251252Y-23946848D01*
X14326305Y-24059172D01*
X14421828Y-24154695D01*
X14534152Y-24229748D01*
X14658960Y-24281445D01*
X14791455Y-24307800D01*
X14926545Y-24307800D01*
X15059040Y-24281445D01*
X15183848Y-24229748D01*
X15296172Y-24154695D01*
X15391695Y-24059172D01*
X15466748Y-23946848D01*
X15518445Y-23822040D01*
X15544800Y-23689545D01*
X15544800Y-23653714D01*
X15588228Y-23600796D01*
X15635400Y-23512544D01*
X15664448Y-23416786D01*
X15671799Y-23342148D01*
X15671799Y-23342145D01*
X15674256Y-23317201D01*
X15671799Y-23292257D01*
X15671799Y-22423951D01*
X15673102Y-22427097D01*
X15807820Y-22628717D01*
X15979283Y-22800180D01*
X16180903Y-22934898D01*
X16404931Y-23027693D01*
X16642757Y-23075000D01*
X16885243Y-23075000D01*
X17123069Y-23027693D01*
X17347097Y-22934898D01*
X17548717Y-22800180D01*
X17653000Y-22695897D01*
X17653000Y-23532103D01*
X17548717Y-23427820D01*
X17347097Y-23293102D01*
X17123069Y-23200307D01*
X16885243Y-23153000D01*
X16642757Y-23153000D01*
X16404931Y-23200307D01*
X16180903Y-23293102D01*
X15979283Y-23427820D01*
X15807820Y-23599283D01*
X15673102Y-23800903D01*
X15580307Y-24024931D01*
X15533000Y-24262757D01*
X15533000Y-24505243D01*
X15580307Y-24743069D01*
X15673102Y-24967097D01*
X15807820Y-25168717D01*
X15979283Y-25340180D01*
X16180903Y-25474898D01*
X16404931Y-25567693D01*
X16642757Y-25615000D01*
X16885243Y-25615000D01*
X17123069Y-25567693D01*
X17347097Y-25474898D01*
X17548717Y-25340180D01*
X17653000Y-25235897D01*
X17653000Y-26072103D01*
X17548717Y-25967820D01*
X17347097Y-25833102D01*
X17123069Y-25740307D01*
X16885243Y-25693000D01*
X16642757Y-25693000D01*
X16404931Y-25740307D01*
X16329834Y-25771413D01*
X15870855Y-25312435D01*
X15854948Y-25293052D01*
X15777595Y-25229571D01*
X15689343Y-25182399D01*
X15593585Y-25153351D01*
X15518947Y-25146000D01*
X15518944Y-25146000D01*
X15494000Y-25143543D01*
X15469056Y-25146000D01*
X14685867Y-25146000D01*
X14661172Y-25121305D01*
X14548848Y-25046252D01*
X14424040Y-24994555D01*
X14291545Y-24968200D01*
X14156455Y-24968200D01*
X14023960Y-24994555D01*
X13899152Y-25046252D01*
X13786828Y-25121305D01*
X13691305Y-25216828D01*
X13616252Y-25329152D01*
X13564555Y-25453960D01*
X13538200Y-25586455D01*
X13538200Y-25721545D01*
X13564555Y-25854040D01*
X13616252Y-25978848D01*
X13691305Y-26091172D01*
X13786828Y-26186695D01*
X13899152Y-26261748D01*
X14023960Y-26313445D01*
X14156455Y-26339800D01*
X14291545Y-26339800D01*
X14424040Y-26313445D01*
X14548848Y-26261748D01*
X14661172Y-26186695D01*
X14685867Y-26162000D01*
X15283580Y-26162000D01*
X15611413Y-26489834D01*
X15580307Y-26564931D01*
X15533000Y-26802757D01*
X15533000Y-27045243D01*
X15580307Y-27283069D01*
X15673102Y-27507097D01*
X15807820Y-27708717D01*
X15979283Y-27880180D01*
X16180903Y-28014898D01*
X16404931Y-28107693D01*
X16642757Y-28155000D01*
X16885243Y-28155000D01*
X17123069Y-28107693D01*
X17347097Y-28014898D01*
X17548717Y-27880180D01*
X17653000Y-27775897D01*
X17653000Y-28612103D01*
X17548717Y-28507820D01*
X17347097Y-28373102D01*
X17123069Y-28280307D01*
X16885243Y-28233000D01*
X16642757Y-28233000D01*
X16404931Y-28280307D01*
X16180903Y-28373102D01*
X15979283Y-28507820D01*
X15807820Y-28679283D01*
X15673102Y-28880903D01*
X15580307Y-29104931D01*
X15533000Y-29342757D01*
X15533000Y-29585243D01*
X15580307Y-29823069D01*
X15673102Y-30047097D01*
X15807820Y-30248717D01*
X15979283Y-30420180D01*
X16180903Y-30554898D01*
X16404931Y-30647693D01*
X16642757Y-30695000D01*
X16885243Y-30695000D01*
X17123069Y-30647693D01*
X17347097Y-30554898D01*
X17548717Y-30420180D01*
X17653000Y-30315897D01*
X17653000Y-31152103D01*
X17548717Y-31047820D01*
X17347097Y-30913102D01*
X17123069Y-30820307D01*
X16885243Y-30773000D01*
X16642757Y-30773000D01*
X16404931Y-30820307D01*
X16180903Y-30913102D01*
X15979283Y-31047820D01*
X15807820Y-31219283D01*
X15673102Y-31420903D01*
X15580307Y-31644931D01*
X15533000Y-31882757D01*
X15533000Y-32125243D01*
X15580307Y-32363069D01*
X15673102Y-32587097D01*
X15807820Y-32788717D01*
X15979283Y-32960180D01*
X16180903Y-33094898D01*
X16404931Y-33187693D01*
X16642757Y-33235000D01*
X16885243Y-33235000D01*
X17123069Y-33187693D01*
X17347097Y-33094898D01*
X17548717Y-32960180D01*
X17653000Y-32855897D01*
X17653000Y-33692103D01*
X17548717Y-33587820D01*
X17347097Y-33453102D01*
X17123069Y-33360307D01*
X16885243Y-33313000D01*
X16642757Y-33313000D01*
X16404931Y-33360307D01*
X16180903Y-33453102D01*
X15979283Y-33587820D01*
X15807820Y-33759283D01*
X15673102Y-33960903D01*
X15580307Y-34184931D01*
X15533000Y-34422757D01*
X15533000Y-34665243D01*
X15580307Y-34903069D01*
X15673102Y-35127097D01*
X15807820Y-35328717D01*
X15979283Y-35500180D01*
X16180903Y-35634898D01*
X16404931Y-35727693D01*
X16642757Y-35775000D01*
X16885243Y-35775000D01*
X17123069Y-35727693D01*
X17347097Y-35634898D01*
X17548717Y-35500180D01*
X17653000Y-35395897D01*
X17653000Y-36232103D01*
X17548717Y-36127820D01*
X17347097Y-35993102D01*
X17123069Y-35900307D01*
X16885243Y-35853000D01*
X16642757Y-35853000D01*
X16404931Y-35900307D01*
X16180903Y-35993102D01*
X15979283Y-36127820D01*
X15807820Y-36299283D01*
X15673102Y-36500903D01*
X15580307Y-36724931D01*
X15533000Y-36962757D01*
X15533000Y-37205243D01*
X15580307Y-37443069D01*
X15673102Y-37667097D01*
X15807820Y-37868717D01*
X15979283Y-38040180D01*
X16180903Y-38174898D01*
X16404931Y-38267693D01*
X16642757Y-38315000D01*
X16885243Y-38315000D01*
X17123069Y-38267693D01*
X17347097Y-38174898D01*
X17548717Y-38040180D01*
X17653000Y-37935897D01*
X17653000Y-38772103D01*
X17548717Y-38667820D01*
X17347097Y-38533102D01*
X17123069Y-38440307D01*
X16885243Y-38393000D01*
X16642757Y-38393000D01*
X16404931Y-38440307D01*
X16180903Y-38533102D01*
X15979283Y-38667820D01*
X15807820Y-38839283D01*
X15673102Y-39040903D01*
X15580307Y-39264931D01*
X15533000Y-39502757D01*
X15533000Y-39745243D01*
X15580307Y-39983069D01*
X15673102Y-40207097D01*
X15807820Y-40408717D01*
X15979283Y-40580180D01*
X16180903Y-40714898D01*
X16404931Y-40807693D01*
X16642757Y-40855000D01*
X16885243Y-40855000D01*
X17123069Y-40807693D01*
X17347097Y-40714898D01*
X17548717Y-40580180D01*
X17653000Y-40475897D01*
X17653000Y-41312103D01*
X17548717Y-41207820D01*
X17347097Y-41073102D01*
X17123069Y-40980307D01*
X16885243Y-40933000D01*
X16642757Y-40933000D01*
X16404931Y-40980307D01*
X16180903Y-41073102D01*
X15979283Y-41207820D01*
X15807820Y-41379283D01*
X15673102Y-41580903D01*
X15580307Y-41804931D01*
X15533000Y-42042757D01*
X15533000Y-42285243D01*
X15580307Y-42523069D01*
X15673102Y-42747097D01*
X15807820Y-42948717D01*
X15979283Y-43120180D01*
X16180903Y-43254898D01*
X16404931Y-43347693D01*
X16642757Y-43395000D01*
X16885243Y-43395000D01*
X17123069Y-43347693D01*
X17347097Y-43254898D01*
X17548717Y-43120180D01*
X17653000Y-43015897D01*
X17653000Y-43852103D01*
X17548717Y-43747820D01*
X17347097Y-43613102D01*
X17123069Y-43520307D01*
X16885243Y-43473000D01*
X16642757Y-43473000D01*
X16404931Y-43520307D01*
X16180903Y-43613102D01*
X15979283Y-43747820D01*
X15807820Y-43919283D01*
X15673102Y-44120903D01*
X15580307Y-44344931D01*
X15533000Y-44582757D01*
X15533000Y-44825243D01*
X15580307Y-45063069D01*
X15673102Y-45287097D01*
X15807820Y-45488717D01*
X15979283Y-45660180D01*
X16180903Y-45794898D01*
X16404931Y-45887693D01*
X16642757Y-45935000D01*
X16885243Y-45935000D01*
X17123069Y-45887693D01*
X17347097Y-45794898D01*
X17548717Y-45660180D01*
X17653000Y-45555897D01*
X17653000Y-46392103D01*
X17548717Y-46287820D01*
X17347097Y-46153102D01*
X17123069Y-46060307D01*
X16885243Y-46013000D01*
X16642757Y-46013000D01*
X16404931Y-46060307D01*
X16180903Y-46153102D01*
X15979283Y-46287820D01*
X15807820Y-46459283D01*
X15673102Y-46660903D01*
X15580307Y-46884931D01*
X15533000Y-47122757D01*
X15533000Y-47365243D01*
X15580307Y-47603069D01*
X15673102Y-47827097D01*
X15807820Y-48028717D01*
X15979283Y-48200180D01*
X16180903Y-48334898D01*
X16404931Y-48427693D01*
X16642757Y-48475000D01*
X16885243Y-48475000D01*
X17123069Y-48427693D01*
X17347097Y-48334898D01*
X17548717Y-48200180D01*
X17653000Y-48095897D01*
X17653000Y-48932103D01*
X17548717Y-48827820D01*
X17347097Y-48693102D01*
X17123069Y-48600307D01*
X16885243Y-48553000D01*
X16642757Y-48553000D01*
X16404931Y-48600307D01*
X16180903Y-48693102D01*
X15979283Y-48827820D01*
X15807820Y-48999283D01*
X15673102Y-49200903D01*
X15580307Y-49424931D01*
X15533000Y-49662757D01*
X15533000Y-49905243D01*
X15580307Y-50143069D01*
X15673102Y-50367097D01*
X15807820Y-50568717D01*
X15912103Y-50673000D01*
X2375897Y-50673000D01*
X2480180Y-50568717D01*
X2614898Y-50367097D01*
X2707693Y-50143069D01*
X2755000Y-49905243D01*
X2755000Y-49662757D01*
X2707693Y-49424931D01*
X2614898Y-49200903D01*
X2480180Y-48999283D01*
X2308717Y-48827820D01*
X2107097Y-48693102D01*
X1883069Y-48600307D01*
X1645243Y-48553000D01*
X1402757Y-48553000D01*
X1164931Y-48600307D01*
X940903Y-48693102D01*
X739283Y-48827820D01*
X635000Y-48932103D01*
X635000Y-48095897D01*
X739283Y-48200180D01*
X940903Y-48334898D01*
X1164931Y-48427693D01*
X1402757Y-48475000D01*
X1645243Y-48475000D01*
X1883069Y-48427693D01*
X1902259Y-48419744D01*
X13013000Y-48419744D01*
X13013000Y-48608256D01*
X13049777Y-48793147D01*
X13121917Y-48967310D01*
X13226649Y-49124052D01*
X13359948Y-49257351D01*
X13516690Y-49362083D01*
X13690853Y-49434223D01*
X13875744Y-49471000D01*
X14064256Y-49471000D01*
X14249147Y-49434223D01*
X14423310Y-49362083D01*
X14580052Y-49257351D01*
X14713351Y-49124052D01*
X14818083Y-48967310D01*
X14890223Y-48793147D01*
X14927000Y-48608256D01*
X14927000Y-48419744D01*
X14890223Y-48234853D01*
X14818083Y-48060690D01*
X14713351Y-47903948D01*
X14580052Y-47770649D01*
X14423310Y-47665917D01*
X14249147Y-47593777D01*
X14064256Y-47557000D01*
X13875744Y-47557000D01*
X13690853Y-47593777D01*
X13516690Y-47665917D01*
X13359948Y-47770649D01*
X13226649Y-47903948D01*
X13121917Y-48060690D01*
X13049777Y-48234853D01*
X13013000Y-48419744D01*
X1902259Y-48419744D01*
X2107097Y-48334898D01*
X2308717Y-48200180D01*
X2480180Y-48028717D01*
X2614898Y-47827097D01*
X2707693Y-47603069D01*
X2755000Y-47365243D01*
X2755000Y-47122757D01*
X2707693Y-46884931D01*
X2614898Y-46660903D01*
X2480180Y-46459283D01*
X2308717Y-46287820D01*
X2107097Y-46153102D01*
X1883069Y-46060307D01*
X1645243Y-46013000D01*
X1402757Y-46013000D01*
X1164931Y-46060307D01*
X940903Y-46153102D01*
X739283Y-46287820D01*
X635000Y-46392103D01*
X635000Y-45555897D01*
X739283Y-45660180D01*
X940903Y-45794898D01*
X1164931Y-45887693D01*
X1402757Y-45935000D01*
X1645243Y-45935000D01*
X1883069Y-45887693D01*
X2107097Y-45794898D01*
X2308717Y-45660180D01*
X2480180Y-45488717D01*
X2614898Y-45287097D01*
X2707693Y-45063069D01*
X2755000Y-44825243D01*
X2755000Y-44582757D01*
X2707693Y-44344931D01*
X2614898Y-44120903D01*
X2480180Y-43919283D01*
X2308717Y-43747820D01*
X2107097Y-43613102D01*
X1883069Y-43520307D01*
X1645243Y-43473000D01*
X1402757Y-43473000D01*
X1164931Y-43520307D01*
X940903Y-43613102D01*
X739283Y-43747820D01*
X635000Y-43852103D01*
X635000Y-43015897D01*
X739283Y-43120180D01*
X940903Y-43254898D01*
X1164931Y-43347693D01*
X1402757Y-43395000D01*
X1645243Y-43395000D01*
X1883069Y-43347693D01*
X2107097Y-43254898D01*
X2308717Y-43120180D01*
X2480180Y-42948717D01*
X2614898Y-42747097D01*
X2707693Y-42523069D01*
X2755000Y-42285243D01*
X2755000Y-42042757D01*
X2707693Y-41804931D01*
X2614898Y-41580903D01*
X2480180Y-41379283D01*
X2308717Y-41207820D01*
X2107097Y-41073102D01*
X1883069Y-40980307D01*
X1645243Y-40933000D01*
X1402757Y-40933000D01*
X1164931Y-40980307D01*
X940903Y-41073102D01*
X739283Y-41207820D01*
X635000Y-41312103D01*
X635000Y-40475897D01*
X739283Y-40580180D01*
X940903Y-40714898D01*
X1164931Y-40807693D01*
X1402757Y-40855000D01*
X1645243Y-40855000D01*
X1883069Y-40807693D01*
X2107097Y-40714898D01*
X2308717Y-40580180D01*
X2480180Y-40408717D01*
X2614898Y-40207097D01*
X2707693Y-39983069D01*
X2755000Y-39745243D01*
X2755000Y-39502757D01*
X2707693Y-39264931D01*
X2614898Y-39040903D01*
X2480180Y-38839283D01*
X2308717Y-38667820D01*
X2107097Y-38533102D01*
X1883069Y-38440307D01*
X1645243Y-38393000D01*
X1402757Y-38393000D01*
X1164931Y-38440307D01*
X940903Y-38533102D01*
X739283Y-38667820D01*
X635000Y-38772103D01*
X635000Y-37935897D01*
X739283Y-38040180D01*
X940903Y-38174898D01*
X1164931Y-38267693D01*
X1402757Y-38315000D01*
X1645243Y-38315000D01*
X1883069Y-38267693D01*
X2107097Y-38174898D01*
X2308717Y-38040180D01*
X2480180Y-37868717D01*
X2614898Y-37667097D01*
X2707693Y-37443069D01*
X2755000Y-37205243D01*
X2755000Y-36962757D01*
X2707693Y-36724931D01*
X2614898Y-36500903D01*
X2480180Y-36299283D01*
X2308717Y-36127820D01*
X2107097Y-35993102D01*
X1883069Y-35900307D01*
X1645243Y-35853000D01*
X1402757Y-35853000D01*
X1164931Y-35900307D01*
X940903Y-35993102D01*
X739283Y-36127820D01*
X635000Y-36232103D01*
X635000Y-35395897D01*
X739283Y-35500180D01*
X940903Y-35634898D01*
X1164931Y-35727693D01*
X1402757Y-35775000D01*
X1645243Y-35775000D01*
X1883069Y-35727693D01*
X2107097Y-35634898D01*
X2308717Y-35500180D01*
X2480180Y-35328717D01*
X2614898Y-35127097D01*
X2707693Y-34903069D01*
X2755000Y-34665243D01*
X2755000Y-34422757D01*
X2707693Y-34184931D01*
X2614898Y-33960903D01*
X2480180Y-33759283D01*
X2308717Y-33587820D01*
X2107097Y-33453102D01*
X1883069Y-33360307D01*
X1645243Y-33313000D01*
X1402757Y-33313000D01*
X1164931Y-33360307D01*
X940903Y-33453102D01*
X739283Y-33587820D01*
X635000Y-33692103D01*
X635000Y-32855897D01*
X739283Y-32960180D01*
X940903Y-33094898D01*
X1164931Y-33187693D01*
X1402757Y-33235000D01*
X1645243Y-33235000D01*
X1883069Y-33187693D01*
X2107097Y-33094898D01*
X2308717Y-32960180D01*
X2480180Y-32788717D01*
X2614898Y-32587097D01*
X2707693Y-32363069D01*
X2755000Y-32125243D01*
X2755000Y-31882757D01*
X2707693Y-31644931D01*
X2614898Y-31420903D01*
X2480180Y-31219283D01*
X2308717Y-31047820D01*
X2107097Y-30913102D01*
X1883069Y-30820307D01*
X1645243Y-30773000D01*
X1402757Y-30773000D01*
X1164931Y-30820307D01*
X940903Y-30913102D01*
X739283Y-31047820D01*
X635000Y-31152103D01*
X635000Y-30315897D01*
X739283Y-30420180D01*
X940903Y-30554898D01*
X1164931Y-30647693D01*
X1402757Y-30695000D01*
X1645243Y-30695000D01*
X1883069Y-30647693D01*
X2107097Y-30554898D01*
X2308717Y-30420180D01*
X2480180Y-30248717D01*
X2614898Y-30047097D01*
X2707693Y-29823069D01*
X2755000Y-29585243D01*
X2755000Y-29342757D01*
X2707693Y-29104931D01*
X2614898Y-28880903D01*
X2480180Y-28679283D01*
X2308717Y-28507820D01*
X2107097Y-28373102D01*
X1883069Y-28280307D01*
X1645243Y-28233000D01*
X1402757Y-28233000D01*
X1164931Y-28280307D01*
X940903Y-28373102D01*
X739283Y-28507820D01*
X635000Y-28612103D01*
X635000Y-27775897D01*
X739283Y-27880180D01*
X940903Y-28014898D01*
X1164931Y-28107693D01*
X1402757Y-28155000D01*
X1645243Y-28155000D01*
X1883069Y-28107693D01*
X2107097Y-28014898D01*
X2308717Y-27880180D01*
X2480180Y-27708717D01*
X2614898Y-27507097D01*
X2707693Y-27283069D01*
X2755000Y-27045243D01*
X2755000Y-26802757D01*
X2707693Y-26564931D01*
X2614898Y-26340903D01*
X2480180Y-26139283D01*
X2308717Y-25967820D01*
X2107097Y-25833102D01*
X1883069Y-25740307D01*
X1645243Y-25693000D01*
X1402757Y-25693000D01*
X1164931Y-25740307D01*
X940903Y-25833102D01*
X739283Y-25967820D01*
X635000Y-26072103D01*
X635000Y-25233802D01*
X642877Y-25243645D01*
X827516Y-25399026D01*
X1038921Y-25515400D01*
X1268967Y-25588295D01*
X1460500Y-25518114D01*
X1460500Y-24447500D01*
X1587500Y-24447500D01*
X1587500Y-25518114D01*
X1779033Y-25588295D01*
X2009079Y-25515400D01*
X2220484Y-25399026D01*
X2405123Y-25243645D01*
X2555901Y-25055229D01*
X2667024Y-24841018D01*
X2728292Y-24639033D01*
X2657973Y-24447500D01*
X1587500Y-24447500D01*
X1460500Y-24447500D01*
X1440500Y-24447500D01*
X1440500Y-24320500D01*
X1460500Y-24320500D01*
X1460500Y-23249886D01*
X1587500Y-23249886D01*
X1587500Y-24320500D01*
X2657973Y-24320500D01*
X2728292Y-24128967D01*
X2667024Y-23926982D01*
X2555901Y-23712771D01*
X2405123Y-23524355D01*
X2220484Y-23368974D01*
X2009079Y-23252600D01*
X1779033Y-23179705D01*
X1587500Y-23249886D01*
X1460500Y-23249886D01*
X1268967Y-23179705D01*
X1038921Y-23252600D01*
X827516Y-23368974D01*
X642877Y-23524355D01*
X635000Y-23534198D01*
X635000Y-22693802D01*
X642877Y-22703645D01*
X827516Y-22859026D01*
X1038921Y-22975400D01*
X1268967Y-23048295D01*
X1460500Y-22978114D01*
X1460500Y-21907500D01*
X1587500Y-21907500D01*
X1587500Y-22978114D01*
X1779033Y-23048295D01*
X2009079Y-22975400D01*
X2220484Y-22859026D01*
X2405123Y-22703645D01*
X2555901Y-22515229D01*
X2667024Y-22301018D01*
X2728292Y-22099033D01*
X2657973Y-21907500D01*
X1587500Y-21907500D01*
X1460500Y-21907500D01*
X1440500Y-21907500D01*
X1440500Y-21780500D01*
X1460500Y-21780500D01*
X1460500Y-20709886D01*
X1587500Y-20709886D01*
X1587500Y-21780500D01*
X2657973Y-21780500D01*
X2728292Y-21588967D01*
X2667024Y-21386982D01*
X2555901Y-21172771D01*
X2405123Y-20984355D01*
X2220484Y-20828974D01*
X2009079Y-20712600D01*
X1779033Y-20639705D01*
X1587500Y-20709886D01*
X1460500Y-20709886D01*
X1268967Y-20639705D01*
X1038921Y-20712600D01*
X827516Y-20828974D01*
X642877Y-20984355D01*
X635000Y-20994198D01*
X635000Y-20155897D01*
X739283Y-20260180D01*
X940903Y-20394898D01*
X1164931Y-20487693D01*
X1402757Y-20535000D01*
X1645243Y-20535000D01*
X1883069Y-20487693D01*
X2107097Y-20394898D01*
X2308717Y-20260180D01*
X2480180Y-20088717D01*
X2614898Y-19887097D01*
X2707693Y-19663069D01*
X2755000Y-19425243D01*
X2755000Y-19182757D01*
X2707693Y-18944931D01*
X2614898Y-18720903D01*
X2480180Y-18519283D01*
X2308717Y-18347820D01*
X2107097Y-18213102D01*
X1883069Y-18120307D01*
X1645243Y-18073000D01*
X1402757Y-18073000D01*
X1164931Y-18120307D01*
X940903Y-18213102D01*
X739283Y-18347820D01*
X635000Y-18452103D01*
X635000Y-17615897D01*
X739283Y-17720180D01*
X940903Y-17854898D01*
X1164931Y-17947693D01*
X1402757Y-17995000D01*
X1645243Y-17995000D01*
X1883069Y-17947693D01*
X2107097Y-17854898D01*
X2308717Y-17720180D01*
X2480180Y-17548717D01*
X2614898Y-17347097D01*
X2707693Y-17123069D01*
X2755000Y-16885243D01*
X2755000Y-16642757D01*
X2707693Y-16404931D01*
X2614898Y-16180903D01*
X2480180Y-15979283D01*
X2308717Y-15807820D01*
X2107097Y-15673102D01*
X1883069Y-15580307D01*
X1645243Y-15533000D01*
X1402757Y-15533000D01*
X1164931Y-15580307D01*
X940903Y-15673102D01*
X739283Y-15807820D01*
X635000Y-15912103D01*
X635000Y-15075897D01*
X739283Y-15180180D01*
X940903Y-15314898D01*
X1164931Y-15407693D01*
X1402757Y-15455000D01*
X1645243Y-15455000D01*
X1883069Y-15407693D01*
X2107097Y-15314898D01*
X2308717Y-15180180D01*
X2480180Y-15008717D01*
X2614898Y-14807097D01*
X2707693Y-14583069D01*
X2755000Y-14345243D01*
X2755000Y-14102757D01*
X2707693Y-13864931D01*
X2614898Y-13640903D01*
X2480180Y-13439283D01*
X2308717Y-13267820D01*
X2107097Y-13133102D01*
X1883069Y-13040307D01*
X1645243Y-12993000D01*
X1402757Y-12993000D01*
X1164931Y-13040307D01*
X940903Y-13133102D01*
X739283Y-13267820D01*
X635000Y-13372103D01*
X635000Y-12535897D01*
X739283Y-12640180D01*
X940903Y-12774898D01*
X1164931Y-12867693D01*
X1402757Y-12915000D01*
X1645243Y-12915000D01*
X1883069Y-12867693D01*
X2107097Y-12774898D01*
X2308717Y-12640180D01*
X2480180Y-12468717D01*
X2614898Y-12267097D01*
X2707693Y-12043069D01*
X2755000Y-11805243D01*
X2755000Y-11562757D01*
X2707693Y-11324931D01*
X2614898Y-11100903D01*
X2480180Y-10899283D01*
X2308717Y-10727820D01*
X2107097Y-10593102D01*
X1883069Y-10500307D01*
X1645243Y-10453000D01*
X1402757Y-10453000D01*
X1164931Y-10500307D01*
X940903Y-10593102D01*
X739283Y-10727820D01*
X635000Y-10832103D01*
X635000Y-9995897D01*
X739283Y-10100180D01*
X940903Y-10234898D01*
X1164931Y-10327693D01*
X1402757Y-10375000D01*
X1645243Y-10375000D01*
X1883069Y-10327693D01*
X2107097Y-10234898D01*
X2308717Y-10100180D01*
X2480180Y-9928717D01*
X2614898Y-9727097D01*
X2707693Y-9503069D01*
X2755000Y-9265243D01*
X2755000Y-9022757D01*
X2707693Y-8784931D01*
X2614898Y-8560903D01*
X2480180Y-8359283D01*
X2308717Y-8187820D01*
X2107097Y-8053102D01*
X1883069Y-7960307D01*
X1645243Y-7913000D01*
X1402757Y-7913000D01*
X1164931Y-7960307D01*
X940903Y-8053102D01*
X739283Y-8187820D01*
X635000Y-8292103D01*
X635000Y-7455897D01*
X739283Y-7560180D01*
X940903Y-7694898D01*
X1164931Y-7787693D01*
X1402757Y-7835000D01*
X1645243Y-7835000D01*
X1883069Y-7787693D01*
X2107097Y-7694898D01*
X2308717Y-7560180D01*
X2480180Y-7388717D01*
X2614898Y-7187097D01*
X2675235Y-7041430D01*
X2706707Y-7079779D01*
X2760579Y-7145422D01*
X2789649Y-7169279D01*
X3472116Y-7851747D01*
X3578253Y-7957884D01*
X3578256Y-7957886D01*
X3937000Y-8316631D01*
X3936999Y-15066605D01*
X3935355Y-15068608D01*
X3901830Y-15131331D01*
X3847753Y-15077254D01*
X3735429Y-15002201D01*
X3610621Y-14950504D01*
X3478126Y-14924149D01*
X3343036Y-14924149D01*
X3210541Y-14950504D01*
X3085733Y-15002201D01*
X2973409Y-15077254D01*
X2877886Y-15172777D01*
X2802833Y-15285101D01*
X2751136Y-15409909D01*
X2724781Y-15542404D01*
X2724781Y-15677494D01*
X2751136Y-15809989D01*
X2794001Y-15913474D01*
X2794000Y-20295056D01*
X2791543Y-20320000D01*
X2794000Y-20344944D01*
X2794000Y-20344946D01*
X2801351Y-20419584D01*
X2830399Y-20515342D01*
X2877571Y-20603595D01*
X2941052Y-20680948D01*
X2960435Y-20696855D01*
X6139580Y-23876000D01*
X5754435Y-24261145D01*
X5735052Y-24277052D01*
X5671571Y-24354405D01*
X5624399Y-24442658D01*
X5595351Y-24538416D01*
X5588000Y-24613053D01*
X5585543Y-24638000D01*
X5588000Y-24662945D01*
X5588000Y-25016906D01*
X5534040Y-24994555D01*
X5401545Y-24968200D01*
X5266455Y-24968200D01*
X5133960Y-24994555D01*
X5009152Y-25046252D01*
X4896828Y-25121305D01*
X4801305Y-25216828D01*
X4726252Y-25329152D01*
X4674555Y-25453960D01*
X4648200Y-25586455D01*
X4648200Y-25721545D01*
X4674555Y-25854040D01*
X4726252Y-25978848D01*
X4801305Y-26091172D01*
X4826001Y-26115868D01*
X4826000Y-35458108D01*
X4823543Y-35483052D01*
X4826000Y-35507996D01*
X4826000Y-35507998D01*
X4833351Y-35582636D01*
X4862399Y-35678394D01*
X4909571Y-35766647D01*
X4973052Y-35844000D01*
X4992435Y-35859907D01*
X5796093Y-36663565D01*
X5812000Y-36682948D01*
X5889353Y-36746429D01*
X5977605Y-36793601D01*
X6073363Y-36822649D01*
X6141492Y-36829359D01*
X6166828Y-36854695D01*
X6279152Y-36929748D01*
X6403960Y-36981445D01*
X6536455Y-37007800D01*
X6671545Y-37007800D01*
X6804040Y-36981445D01*
X6928848Y-36929748D01*
X7041172Y-36854695D01*
X7136695Y-36759172D01*
X7211748Y-36646848D01*
X7263445Y-36522040D01*
X7289800Y-36389545D01*
X7289800Y-36254455D01*
X7263445Y-36121960D01*
X7211748Y-35997152D01*
X7136695Y-35884828D01*
X7041172Y-35789305D01*
X6928848Y-35714252D01*
X6907835Y-35705548D01*
X6957748Y-35630848D01*
X7009445Y-35506040D01*
X7035800Y-35373545D01*
X7035800Y-35238455D01*
X7009445Y-35105960D01*
X6957748Y-34981152D01*
X6882695Y-34868828D01*
X6787172Y-34773305D01*
X6674848Y-34698252D01*
X6550040Y-34646555D01*
X6417545Y-34620200D01*
X6382620Y-34620200D01*
X6349999Y-34587579D01*
X6349999Y-26372420D01*
X6437560Y-26284859D01*
X6456948Y-26268948D01*
X6520429Y-26191595D01*
X6567601Y-26103343D01*
X6596649Y-26007585D01*
X6604000Y-25932947D01*
X6604000Y-25932944D01*
X6606457Y-25908000D01*
X6604000Y-25883056D01*
X6604000Y-24904000D01*
X6961157Y-24904000D01*
X6961157Y-26404000D01*
X6968513Y-26478689D01*
X6990299Y-26550508D01*
X7025678Y-26616696D01*
X7073289Y-26674711D01*
X7131304Y-26722322D01*
X7197492Y-26757701D01*
X7269311Y-26779487D01*
X7344000Y-26786843D01*
X7357688Y-26786843D01*
X7372400Y-26835343D01*
X7419571Y-26923595D01*
X7467150Y-26981570D01*
X7483053Y-27000948D01*
X7502430Y-27016850D01*
X9398000Y-28912421D01*
X9398001Y-31034132D01*
X9373305Y-31058828D01*
X9298252Y-31171152D01*
X9246555Y-31295960D01*
X9220200Y-31428455D01*
X9220200Y-31563545D01*
X9246555Y-31696040D01*
X9298252Y-31820848D01*
X9373305Y-31933172D01*
X9468828Y-32028695D01*
X9581152Y-32103748D01*
X9705960Y-32155445D01*
X9838455Y-32181800D01*
X9973545Y-32181800D01*
X10106040Y-32155445D01*
X10230848Y-32103748D01*
X10256911Y-32086333D01*
X10236200Y-32190455D01*
X10236200Y-32325545D01*
X10262555Y-32458040D01*
X10314252Y-32582848D01*
X10389305Y-32695172D01*
X10484828Y-32790695D01*
X10597152Y-32865748D01*
X10721960Y-32917445D01*
X10854455Y-32943800D01*
X10989545Y-32943800D01*
X11122040Y-32917445D01*
X11246848Y-32865748D01*
X11359172Y-32790695D01*
X11454695Y-32695172D01*
X11529748Y-32582848D01*
X11581445Y-32458040D01*
X11607800Y-32325545D01*
X11607800Y-32190455D01*
X11581445Y-32057960D01*
X11529748Y-31933152D01*
X11454695Y-31820828D01*
X11430000Y-31796133D01*
X11430000Y-31597141D01*
X11432457Y-31572197D01*
X11427409Y-31520947D01*
X11422649Y-31472613D01*
X11393601Y-31376855D01*
X11371643Y-31335774D01*
X11346429Y-31288602D01*
X11298850Y-31230627D01*
X11282948Y-31211250D01*
X11263570Y-31195347D01*
X10952000Y-30883778D01*
X10952000Y-26786055D01*
X11018689Y-26779487D01*
X11090508Y-26757701D01*
X11156696Y-26722322D01*
X11214711Y-26674711D01*
X11262322Y-26616696D01*
X11297701Y-26550508D01*
X11319487Y-26478689D01*
X11326843Y-26404000D01*
X11326843Y-24904000D01*
X11319487Y-24829311D01*
X11297701Y-24757492D01*
X11262322Y-24691304D01*
X11214711Y-24633289D01*
X11156696Y-24585678D01*
X11090508Y-24550299D01*
X11018689Y-24528513D01*
X10944000Y-24521157D01*
X9979263Y-24521157D01*
X10446621Y-24053800D01*
X10481545Y-24053800D01*
X10614040Y-24027445D01*
X10738848Y-23975748D01*
X10851172Y-23900695D01*
X10946695Y-23805172D01*
X11021748Y-23692848D01*
X11073445Y-23568040D01*
X11099800Y-23435545D01*
X11099800Y-23300455D01*
X11073445Y-23167960D01*
X11021748Y-23043152D01*
X10946695Y-22930828D01*
X10851172Y-22835305D01*
X10738848Y-22760252D01*
X10614040Y-22708555D01*
X10481545Y-22682200D01*
X10346455Y-22682200D01*
X10213960Y-22708555D01*
X10089152Y-22760252D01*
X9976828Y-22835305D01*
X9881305Y-22930828D01*
X9806252Y-23043152D01*
X9754555Y-23167960D01*
X9728200Y-23300455D01*
X9728200Y-23335379D01*
X8802435Y-24261145D01*
X8783052Y-24277052D01*
X8719571Y-24354405D01*
X8672399Y-24442658D01*
X8648586Y-24521157D01*
X8644000Y-24521157D01*
X8569311Y-24528513D01*
X8497492Y-24550299D01*
X8494000Y-24552166D01*
X8490508Y-24550299D01*
X8418689Y-24528513D01*
X8344000Y-24521157D01*
X7344000Y-24521157D01*
X7269311Y-24528513D01*
X7197492Y-24550299D01*
X7131304Y-24585678D01*
X7073289Y-24633289D01*
X7025678Y-24691304D01*
X6990299Y-24757492D01*
X6968513Y-24829311D01*
X6961157Y-24904000D01*
X6604000Y-24904000D01*
X6604000Y-24848420D01*
X6890620Y-24561800D01*
X6925545Y-24561800D01*
X7058040Y-24535445D01*
X7182848Y-24483748D01*
X7295172Y-24408695D01*
X7390695Y-24313172D01*
X7465748Y-24200848D01*
X7517445Y-24076040D01*
X7543800Y-23943545D01*
X7543800Y-23808455D01*
X7517445Y-23675960D01*
X7465748Y-23551152D01*
X7390695Y-23438828D01*
X7295172Y-23343305D01*
X7182848Y-23268252D01*
X7058040Y-23216555D01*
X6925545Y-23190200D01*
X6890621Y-23190200D01*
X3810000Y-20109580D01*
X3810000Y-17229573D01*
X3841733Y-17242717D01*
X3988950Y-17272000D01*
X4139050Y-17272000D01*
X4286267Y-17242717D01*
X4424942Y-17185276D01*
X4549747Y-17101884D01*
X4655884Y-16995747D01*
X4739276Y-16870942D01*
X4796717Y-16732267D01*
X4826000Y-16585050D01*
X4826000Y-16434950D01*
X4796717Y-16287733D01*
X4772573Y-16229443D01*
X4865015Y-16201401D01*
X4997392Y-16130645D01*
X5084351Y-16059279D01*
X5211342Y-15932287D01*
X5240421Y-15908423D01*
X5335644Y-15792393D01*
X5406401Y-15660016D01*
X5449973Y-15516379D01*
X5460999Y-15404427D01*
X5460999Y-15404424D01*
X5464685Y-15367001D01*
X5460999Y-15329578D01*
X5460999Y-9840629D01*
X7620000Y-11999631D01*
X7620001Y-19520567D01*
X7616314Y-19558000D01*
X7631027Y-19707378D01*
X7674599Y-19851015D01*
X7745355Y-19983392D01*
X7788862Y-20036405D01*
X7840579Y-20099422D01*
X7869649Y-20123279D01*
X8552116Y-20805747D01*
X8658253Y-20911884D01*
X8689535Y-20932786D01*
X8718607Y-20956645D01*
X8751775Y-20974374D01*
X8783058Y-20995276D01*
X8817821Y-21009675D01*
X8850984Y-21027401D01*
X8886966Y-21038316D01*
X8921733Y-21052717D01*
X8958640Y-21060058D01*
X8994621Y-21070973D01*
X9032043Y-21074659D01*
X9068950Y-21082000D01*
X9106577Y-21082000D01*
X9144000Y-21085686D01*
X9181423Y-21082000D01*
X9219050Y-21082000D01*
X9255957Y-21074659D01*
X9293378Y-21070973D01*
X9329358Y-21060059D01*
X9366267Y-21052717D01*
X9401035Y-21038316D01*
X9437016Y-21027401D01*
X9470178Y-21009676D01*
X9504942Y-20995276D01*
X9536228Y-20974372D01*
X9569392Y-20956645D01*
X9598459Y-20932790D01*
X9629747Y-20911884D01*
X9656359Y-20885272D01*
X9685421Y-20861421D01*
X9709272Y-20832359D01*
X9735884Y-20805747D01*
X9756790Y-20774459D01*
X9780645Y-20745392D01*
X9798372Y-20712228D01*
X9819276Y-20680942D01*
X9833676Y-20646178D01*
X9851401Y-20613016D01*
X9862316Y-20577035D01*
X9876717Y-20542267D01*
X9884059Y-20505358D01*
X9894973Y-20469378D01*
X9898659Y-20431957D01*
X9906000Y-20395050D01*
X9906000Y-20357423D01*
X9909686Y-20320000D01*
X9906000Y-20282577D01*
X9906000Y-20244950D01*
X9898659Y-20208043D01*
X9894973Y-20170621D01*
X9884058Y-20134640D01*
X9876717Y-20097733D01*
X9862316Y-20062966D01*
X9851401Y-20026984D01*
X9833675Y-19993821D01*
X9819276Y-19959058D01*
X9798374Y-19927775D01*
X9780645Y-19894607D01*
X9756786Y-19865535D01*
X9735884Y-19834253D01*
X9629747Y-19728116D01*
X9144000Y-19242370D01*
X9144000Y-11721422D01*
X9147686Y-11683999D01*
X9144000Y-11646574D01*
X9132974Y-11534622D01*
X9089402Y-11390985D01*
X9018645Y-11258608D01*
X8923422Y-11142578D01*
X8894353Y-11118722D01*
X5264282Y-7488652D01*
X5240421Y-7459577D01*
X5211350Y-7435719D01*
X4655886Y-6880256D01*
X4655884Y-6880253D01*
X4549747Y-6774116D01*
X4064000Y-6288370D01*
X4064000Y-5408142D01*
X4082649Y-5436052D01*
X4215948Y-5569351D01*
X4372690Y-5674083D01*
X4546853Y-5746223D01*
X4731744Y-5783000D01*
X4920256Y-5783000D01*
X5105147Y-5746223D01*
X5279310Y-5674083D01*
X5436052Y-5569351D01*
X5569351Y-5436052D01*
X5674083Y-5279310D01*
X5746223Y-5105147D01*
X5783000Y-4920256D01*
X5783000Y-4731744D01*
X5746223Y-4546853D01*
X5674083Y-4372690D01*
X5569351Y-4215948D01*
X5436052Y-4082649D01*
X5279310Y-3977917D01*
X5105147Y-3905777D01*
X4920256Y-3869000D01*
X4731744Y-3869000D01*
X4546853Y-3905777D01*
X4372690Y-3977917D01*
X4215948Y-4082649D01*
X4082649Y-4215948D01*
X4064000Y-4243858D01*
X4064000Y-3871630D01*
X5178788Y-2756843D01*
X6184000Y-2756843D01*
X6258689Y-2749487D01*
X6330508Y-2727701D01*
X6396696Y-2692322D01*
X6454711Y-2644711D01*
X6502322Y-2586696D01*
X6537701Y-2520508D01*
X6559487Y-2448689D01*
X6566843Y-2374000D01*
X6566843Y-1779033D01*
X6669705Y-1779033D01*
X6742600Y-2009079D01*
X6858974Y-2220484D01*
X7014355Y-2405123D01*
X7202771Y-2555901D01*
X7416982Y-2667024D01*
X7618967Y-2728292D01*
X7810500Y-2657973D01*
X7810500Y-1587500D01*
X7937500Y-1587500D01*
X7937500Y-2657973D01*
X8129033Y-2728292D01*
X8331018Y-2667024D01*
X8545229Y-2555901D01*
X8733645Y-2405123D01*
X8889026Y-2220484D01*
X9005400Y-2009079D01*
X9078295Y-1779033D01*
X9008114Y-1587500D01*
X7937500Y-1587500D01*
X7810500Y-1587500D01*
X6739886Y-1587500D01*
X6669705Y-1779033D01*
X6566843Y-1779033D01*
X6566843Y-674000D01*
X6563002Y-635000D01*
X7024198Y-635000D01*
X7014355Y-642877D01*
G37*
X7014355Y-642877D02*
X6858974Y-827516D01*
X6742600Y-1038921D01*
X6669705Y-1268967D01*
X6739886Y-1460500D01*
X7810500Y-1460500D01*
X7810500Y-1440500D01*
X7937500Y-1440500D01*
X7937500Y-1460500D01*
X9008114Y-1460500D01*
X9078295Y-1268967D01*
X9005400Y-1038921D01*
X8889026Y-827516D01*
X8733645Y-642877D01*
X8723802Y-635000D01*
X9562103Y-635000D01*
X9457820Y-739283D01*
X9323102Y-940903D01*
X9230307Y-1164931D01*
X9183000Y-1402757D01*
X9183000Y-1645243D01*
X9230307Y-1883069D01*
X9323102Y-2107097D01*
X9457820Y-2308717D01*
X9629283Y-2480180D01*
X9830903Y-2614898D01*
X10054931Y-2707693D01*
X10292757Y-2755000D01*
X10535243Y-2755000D01*
X10773069Y-2707693D01*
X10997097Y-2614898D01*
X11198717Y-2480180D01*
X11370180Y-2308717D01*
X11504898Y-2107097D01*
X11597693Y-1883069D01*
X11645000Y-1645243D01*
X11645000Y-1402757D01*
X11597693Y-1164931D01*
X11504898Y-940903D01*
X11370180Y-739283D01*
X11265897Y-635000D01*
X12102103Y-635000D01*
X11997820Y-739283D01*
X11863102Y-940903D01*
X11770307Y-1164931D01*
X11723000Y-1402757D01*
X11723000Y-1645243D01*
X11770307Y-1883069D01*
X11863102Y-2107097D01*
X11997820Y-2308717D01*
X12169283Y-2480180D01*
X12370903Y-2614898D01*
X12594931Y-2707693D01*
X12832757Y-2755000D01*
X13075243Y-2755000D01*
X13313069Y-2707693D01*
X13537097Y-2614898D01*
X13738717Y-2480180D01*
X13844897Y-2374000D01*
X15531157Y-2374000D01*
X15538513Y-2448689D01*
X15560299Y-2520508D01*
X15595678Y-2586696D01*
X15643289Y-2644711D01*
X15701304Y-2692322D01*
X15767492Y-2727701D01*
X15839311Y-2749487D01*
X15914000Y-2756843D01*
X16605250Y-2755000D01*
X16700500Y-2659750D01*
X16700500Y-1587500D01*
X15628250Y-1587500D01*
X15533000Y-1682750D01*
X15531157Y-2374000D01*
X13844897Y-2374000D01*
X13910180Y-2308717D01*
X14044898Y-2107097D01*
X14137693Y-1883069D01*
X14185000Y-1645243D01*
X14185000Y-1402757D01*
X14137693Y-1164931D01*
X14044898Y-940903D01*
X13910180Y-739283D01*
X13805897Y-635000D01*
X15534998Y-635000D01*
X15531157Y-674000D01*
X15533000Y-1365250D01*
X15628250Y-1460500D01*
X16700500Y-1460500D01*
X16700500Y-1440500D01*
X16827500Y-1440500D01*
X16827500Y-1460500D01*
X16847500Y-1460500D01*
X16847500Y-1587500D01*
X16827500Y-1587500D01*
X16827500Y-2659750D01*
X16922750Y-2755000D01*
X17614000Y-2756843D01*
X17653000Y-2753002D01*
X17653000Y-3212103D01*
X17548717Y-3107820D01*
X17347097Y-2973102D01*
X17123069Y-2880307D01*
X16885243Y-2833000D01*
X16642757Y-2833000D01*
X16404931Y-2880307D01*
X16180903Y-2973102D01*
X15979283Y-3107820D01*
X15807820Y-3279283D01*
X15673102Y-3480903D01*
X15672905Y-3481378D01*
X15674256Y-3467665D01*
X15671196Y-3436598D01*
X15669793Y-3422354D01*
X15680901Y-3366512D01*
X15680901Y-3231422D01*
X15654546Y-3098927D01*
X15602849Y-2974119D01*
X15527796Y-2861795D01*
X15432273Y-2766272D01*
X15319949Y-2691219D01*
X15195141Y-2639522D01*
X15062646Y-2613167D01*
X14927556Y-2613167D01*
X14795061Y-2639522D01*
X14670253Y-2691219D01*
X14557929Y-2766272D01*
X14462406Y-2861795D01*
X14387353Y-2974119D01*
X14375695Y-3002264D01*
X14294860Y-2948252D01*
X14170052Y-2896555D01*
X14037557Y-2870200D01*
X13902467Y-2870200D01*
X13769972Y-2896555D01*
X13645164Y-2948252D01*
X13532840Y-3023305D01*
X13437317Y-3118828D01*
X13362264Y-3231152D01*
X13310567Y-3355960D01*
X13284212Y-3488455D01*
X13284212Y-3623545D01*
X13310567Y-3756040D01*
X13362264Y-3880848D01*
X13437317Y-3993172D01*
X13532840Y-4088695D01*
X13645164Y-4163748D01*
X13769972Y-4215445D01*
X13902467Y-4241800D01*
X13937391Y-4241800D01*
X14097000Y-4401409D01*
X14096999Y-6012581D01*
X13120430Y-6989150D01*
X13101053Y-7005052D01*
X13085151Y-7024429D01*
X13085150Y-7024430D01*
X13037571Y-7082405D01*
X12990400Y-7170657D01*
X12967364Y-7246598D01*
X12961352Y-7266416D01*
X12951543Y-7366000D01*
X12954001Y-7390954D01*
X12954000Y-24173579D01*
X12159380Y-24968200D01*
X12124455Y-24968200D01*
X11991960Y-24994555D01*
X11867152Y-25046252D01*
X11754828Y-25121305D01*
X11659305Y-25216828D01*
X11584252Y-25329152D01*
X11532555Y-25453960D01*
X11506200Y-25586455D01*
X11506200Y-25721545D01*
X11532555Y-25854040D01*
X11584252Y-25978848D01*
X11659305Y-26091172D01*
X11754828Y-26186695D01*
X11867152Y-26261748D01*
X11991960Y-26313445D01*
X12124455Y-26339800D01*
X12259545Y-26339800D01*
X12392040Y-26313445D01*
X12516848Y-26261748D01*
X12629172Y-26186695D01*
X12724695Y-26091172D01*
X12799748Y-25978848D01*
X12851445Y-25854040D01*
X12877800Y-25721545D01*
X12877800Y-25686620D01*
X13803571Y-24760850D01*
X13822948Y-24744948D01*
X13866972Y-24691304D01*
X13886429Y-24667596D01*
X13933600Y-24579345D01*
X13933601Y-24579342D01*
X13962649Y-24483585D01*
X13970000Y-24408947D01*
X13970000Y-24408945D01*
X13972457Y-24384001D01*
X13970000Y-24359057D01*
X13970000Y-7576420D01*
X14655800Y-6890620D01*
X14655799Y-22963864D01*
X14534152Y-23014252D01*
X14421828Y-23089305D01*
X14326305Y-23184828D01*
X14251252Y-23297152D01*
X14199555Y-23421960D01*
X14173200Y-23554455D01*
X14173200Y-23689545D01*
X14199555Y-23822040D01*
X14251252Y-23946848D01*
X14326305Y-24059172D01*
X14421828Y-24154695D01*
X14534152Y-24229748D01*
X14658960Y-24281445D01*
X14791455Y-24307800D01*
X14926545Y-24307800D01*
X15059040Y-24281445D01*
X15183848Y-24229748D01*
X15296172Y-24154695D01*
X15391695Y-24059172D01*
X15466748Y-23946848D01*
X15518445Y-23822040D01*
X15544800Y-23689545D01*
X15544800Y-23653714D01*
X15588228Y-23600796D01*
X15635400Y-23512544D01*
X15664448Y-23416786D01*
X15671799Y-23342148D01*
X15671799Y-23342145D01*
X15674256Y-23317201D01*
X15671799Y-23292257D01*
X15671799Y-22423951D01*
X15673102Y-22427097D01*
X15807820Y-22628717D01*
X15979283Y-22800180D01*
X16180903Y-22934898D01*
X16404931Y-23027693D01*
X16642757Y-23075000D01*
X16885243Y-23075000D01*
X17123069Y-23027693D01*
X17347097Y-22934898D01*
X17548717Y-22800180D01*
X17653000Y-22695897D01*
X17653000Y-23532103D01*
X17548717Y-23427820D01*
X17347097Y-23293102D01*
X17123069Y-23200307D01*
X16885243Y-23153000D01*
X16642757Y-23153000D01*
X16404931Y-23200307D01*
X16180903Y-23293102D01*
X15979283Y-23427820D01*
X15807820Y-23599283D01*
X15673102Y-23800903D01*
X15580307Y-24024931D01*
X15533000Y-24262757D01*
X15533000Y-24505243D01*
X15580307Y-24743069D01*
X15673102Y-24967097D01*
X15807820Y-25168717D01*
X15979283Y-25340180D01*
X16180903Y-25474898D01*
X16404931Y-25567693D01*
X16642757Y-25615000D01*
X16885243Y-25615000D01*
X17123069Y-25567693D01*
X17347097Y-25474898D01*
X17548717Y-25340180D01*
X17653000Y-25235897D01*
X17653000Y-26072103D01*
X17548717Y-25967820D01*
X17347097Y-25833102D01*
X17123069Y-25740307D01*
X16885243Y-25693000D01*
X16642757Y-25693000D01*
X16404931Y-25740307D01*
X16329834Y-25771413D01*
X15870855Y-25312435D01*
X15854948Y-25293052D01*
X15777595Y-25229571D01*
X15689343Y-25182399D01*
X15593585Y-25153351D01*
X15518947Y-25146000D01*
X15518944Y-25146000D01*
X15494000Y-25143543D01*
X15469056Y-25146000D01*
X14685867Y-25146000D01*
X14661172Y-25121305D01*
X14548848Y-25046252D01*
X14424040Y-24994555D01*
X14291545Y-24968200D01*
X14156455Y-24968200D01*
X14023960Y-24994555D01*
X13899152Y-25046252D01*
X13786828Y-25121305D01*
X13691305Y-25216828D01*
X13616252Y-25329152D01*
X13564555Y-25453960D01*
X13538200Y-25586455D01*
X13538200Y-25721545D01*
X13564555Y-25854040D01*
X13616252Y-25978848D01*
X13691305Y-26091172D01*
X13786828Y-26186695D01*
X13899152Y-26261748D01*
X14023960Y-26313445D01*
X14156455Y-26339800D01*
X14291545Y-26339800D01*
X14424040Y-26313445D01*
X14548848Y-26261748D01*
X14661172Y-26186695D01*
X14685867Y-26162000D01*
X15283580Y-26162000D01*
X15611413Y-26489834D01*
X15580307Y-26564931D01*
X15533000Y-26802757D01*
X15533000Y-27045243D01*
X15580307Y-27283069D01*
X15673102Y-27507097D01*
X15807820Y-27708717D01*
X15979283Y-27880180D01*
X16180903Y-28014898D01*
X16404931Y-28107693D01*
X16642757Y-28155000D01*
X16885243Y-28155000D01*
X17123069Y-28107693D01*
X17347097Y-28014898D01*
X17548717Y-27880180D01*
X17653000Y-27775897D01*
X17653000Y-28612103D01*
X17548717Y-28507820D01*
X17347097Y-28373102D01*
X17123069Y-28280307D01*
X16885243Y-28233000D01*
X16642757Y-28233000D01*
X16404931Y-28280307D01*
X16180903Y-28373102D01*
X15979283Y-28507820D01*
X15807820Y-28679283D01*
X15673102Y-28880903D01*
X15580307Y-29104931D01*
X15533000Y-29342757D01*
X15533000Y-29585243D01*
X15580307Y-29823069D01*
X15673102Y-30047097D01*
X15807820Y-30248717D01*
X15979283Y-30420180D01*
X16180903Y-30554898D01*
X16404931Y-30647693D01*
X16642757Y-30695000D01*
X16885243Y-30695000D01*
X17123069Y-30647693D01*
X17347097Y-30554898D01*
X17548717Y-30420180D01*
X17653000Y-30315897D01*
X17653000Y-31152103D01*
X17548717Y-31047820D01*
X17347097Y-30913102D01*
X17123069Y-30820307D01*
X16885243Y-30773000D01*
X16642757Y-30773000D01*
X16404931Y-30820307D01*
X16180903Y-30913102D01*
X15979283Y-31047820D01*
X15807820Y-31219283D01*
X15673102Y-31420903D01*
X15580307Y-31644931D01*
X15533000Y-31882757D01*
X15533000Y-32125243D01*
X15580307Y-32363069D01*
X15673102Y-32587097D01*
X15807820Y-32788717D01*
X15979283Y-32960180D01*
X16180903Y-33094898D01*
X16404931Y-33187693D01*
X16642757Y-33235000D01*
X16885243Y-33235000D01*
X17123069Y-33187693D01*
X17347097Y-33094898D01*
X17548717Y-32960180D01*
X17653000Y-32855897D01*
X17653000Y-33692103D01*
X17548717Y-33587820D01*
X17347097Y-33453102D01*
X17123069Y-33360307D01*
X16885243Y-33313000D01*
X16642757Y-33313000D01*
X16404931Y-33360307D01*
X16180903Y-33453102D01*
X15979283Y-33587820D01*
X15807820Y-33759283D01*
X15673102Y-33960903D01*
X15580307Y-34184931D01*
X15533000Y-34422757D01*
X15533000Y-34665243D01*
X15580307Y-34903069D01*
X15673102Y-35127097D01*
X15807820Y-35328717D01*
X15979283Y-35500180D01*
X16180903Y-35634898D01*
X16404931Y-35727693D01*
X16642757Y-35775000D01*
X16885243Y-35775000D01*
X17123069Y-35727693D01*
X17347097Y-35634898D01*
X17548717Y-35500180D01*
X17653000Y-35395897D01*
X17653000Y-36232103D01*
X17548717Y-36127820D01*
X17347097Y-35993102D01*
X17123069Y-35900307D01*
X16885243Y-35853000D01*
X16642757Y-35853000D01*
X16404931Y-35900307D01*
X16180903Y-35993102D01*
X15979283Y-36127820D01*
X15807820Y-36299283D01*
X15673102Y-36500903D01*
X15580307Y-36724931D01*
X15533000Y-36962757D01*
X15533000Y-37205243D01*
X15580307Y-37443069D01*
X15673102Y-37667097D01*
X15807820Y-37868717D01*
X15979283Y-38040180D01*
X16180903Y-38174898D01*
X16404931Y-38267693D01*
X16642757Y-38315000D01*
X16885243Y-38315000D01*
X17123069Y-38267693D01*
X17347097Y-38174898D01*
X17548717Y-38040180D01*
X17653000Y-37935897D01*
X17653000Y-38772103D01*
X17548717Y-38667820D01*
X17347097Y-38533102D01*
X17123069Y-38440307D01*
X16885243Y-38393000D01*
X16642757Y-38393000D01*
X16404931Y-38440307D01*
X16180903Y-38533102D01*
X15979283Y-38667820D01*
X15807820Y-38839283D01*
X15673102Y-39040903D01*
X15580307Y-39264931D01*
X15533000Y-39502757D01*
X15533000Y-39745243D01*
X15580307Y-39983069D01*
X15673102Y-40207097D01*
X15807820Y-40408717D01*
X15979283Y-40580180D01*
X16180903Y-40714898D01*
X16404931Y-40807693D01*
X16642757Y-40855000D01*
X16885243Y-40855000D01*
X17123069Y-40807693D01*
X17347097Y-40714898D01*
X17548717Y-40580180D01*
X17653000Y-40475897D01*
X17653000Y-41312103D01*
X17548717Y-41207820D01*
X17347097Y-41073102D01*
X17123069Y-40980307D01*
X16885243Y-40933000D01*
X16642757Y-40933000D01*
X16404931Y-40980307D01*
X16180903Y-41073102D01*
X15979283Y-41207820D01*
X15807820Y-41379283D01*
X15673102Y-41580903D01*
X15580307Y-41804931D01*
X15533000Y-42042757D01*
X15533000Y-42285243D01*
X15580307Y-42523069D01*
X15673102Y-42747097D01*
X15807820Y-42948717D01*
X15979283Y-43120180D01*
X16180903Y-43254898D01*
X16404931Y-43347693D01*
X16642757Y-43395000D01*
X16885243Y-43395000D01*
X17123069Y-43347693D01*
X17347097Y-43254898D01*
X17548717Y-43120180D01*
X17653000Y-43015897D01*
X17653000Y-43852103D01*
X17548717Y-43747820D01*
X17347097Y-43613102D01*
X17123069Y-43520307D01*
X16885243Y-43473000D01*
X16642757Y-43473000D01*
X16404931Y-43520307D01*
X16180903Y-43613102D01*
X15979283Y-43747820D01*
X15807820Y-43919283D01*
X15673102Y-44120903D01*
X15580307Y-44344931D01*
X15533000Y-44582757D01*
X15533000Y-44825243D01*
X15580307Y-45063069D01*
X15673102Y-45287097D01*
X15807820Y-45488717D01*
X15979283Y-45660180D01*
X16180903Y-45794898D01*
X16404931Y-45887693D01*
X16642757Y-45935000D01*
X16885243Y-45935000D01*
X17123069Y-45887693D01*
X17347097Y-45794898D01*
X17548717Y-45660180D01*
X17653000Y-45555897D01*
X17653000Y-46392103D01*
X17548717Y-46287820D01*
X17347097Y-46153102D01*
X17123069Y-46060307D01*
X16885243Y-46013000D01*
X16642757Y-46013000D01*
X16404931Y-46060307D01*
X16180903Y-46153102D01*
X15979283Y-46287820D01*
X15807820Y-46459283D01*
X15673102Y-46660903D01*
X15580307Y-46884931D01*
X15533000Y-47122757D01*
X15533000Y-47365243D01*
X15580307Y-47603069D01*
X15673102Y-47827097D01*
X15807820Y-48028717D01*
X15979283Y-48200180D01*
X16180903Y-48334898D01*
X16404931Y-48427693D01*
X16642757Y-48475000D01*
X16885243Y-48475000D01*
X17123069Y-48427693D01*
X17347097Y-48334898D01*
X17548717Y-48200180D01*
X17653000Y-48095897D01*
X17653000Y-48932103D01*
X17548717Y-48827820D01*
X17347097Y-48693102D01*
X17123069Y-48600307D01*
X16885243Y-48553000D01*
X16642757Y-48553000D01*
X16404931Y-48600307D01*
X16180903Y-48693102D01*
X15979283Y-48827820D01*
X15807820Y-48999283D01*
X15673102Y-49200903D01*
X15580307Y-49424931D01*
X15533000Y-49662757D01*
X15533000Y-49905243D01*
X15580307Y-50143069D01*
X15673102Y-50367097D01*
X15807820Y-50568717D01*
X15912103Y-50673000D01*
X2375897Y-50673000D01*
X2480180Y-50568717D01*
X2614898Y-50367097D01*
X2707693Y-50143069D01*
X2755000Y-49905243D01*
X2755000Y-49662757D01*
X2707693Y-49424931D01*
X2614898Y-49200903D01*
X2480180Y-48999283D01*
X2308717Y-48827820D01*
X2107097Y-48693102D01*
X1883069Y-48600307D01*
X1645243Y-48553000D01*
X1402757Y-48553000D01*
X1164931Y-48600307D01*
X940903Y-48693102D01*
X739283Y-48827820D01*
X635000Y-48932103D01*
X635000Y-48095897D01*
X739283Y-48200180D01*
X940903Y-48334898D01*
X1164931Y-48427693D01*
X1402757Y-48475000D01*
X1645243Y-48475000D01*
X1883069Y-48427693D01*
X1902259Y-48419744D01*
X13013000Y-48419744D01*
X13013000Y-48608256D01*
X13049777Y-48793147D01*
X13121917Y-48967310D01*
X13226649Y-49124052D01*
X13359948Y-49257351D01*
X13516690Y-49362083D01*
X13690853Y-49434223D01*
X13875744Y-49471000D01*
X14064256Y-49471000D01*
X14249147Y-49434223D01*
X14423310Y-49362083D01*
X14580052Y-49257351D01*
X14713351Y-49124052D01*
X14818083Y-48967310D01*
X14890223Y-48793147D01*
X14927000Y-48608256D01*
X14927000Y-48419744D01*
X14890223Y-48234853D01*
X14818083Y-48060690D01*
X14713351Y-47903948D01*
X14580052Y-47770649D01*
X14423310Y-47665917D01*
X14249147Y-47593777D01*
X14064256Y-47557000D01*
X13875744Y-47557000D01*
X13690853Y-47593777D01*
X13516690Y-47665917D01*
X13359948Y-47770649D01*
X13226649Y-47903948D01*
X13121917Y-48060690D01*
X13049777Y-48234853D01*
X13013000Y-48419744D01*
X1902259Y-48419744D01*
X2107097Y-48334898D01*
X2308717Y-48200180D01*
X2480180Y-48028717D01*
X2614898Y-47827097D01*
X2707693Y-47603069D01*
X2755000Y-47365243D01*
X2755000Y-47122757D01*
X2707693Y-46884931D01*
X2614898Y-46660903D01*
X2480180Y-46459283D01*
X2308717Y-46287820D01*
X2107097Y-46153102D01*
X1883069Y-46060307D01*
X1645243Y-46013000D01*
X1402757Y-46013000D01*
X1164931Y-46060307D01*
X940903Y-46153102D01*
X739283Y-46287820D01*
X635000Y-46392103D01*
X635000Y-45555897D01*
X739283Y-45660180D01*
X940903Y-45794898D01*
X1164931Y-45887693D01*
X1402757Y-45935000D01*
X1645243Y-45935000D01*
X1883069Y-45887693D01*
X2107097Y-45794898D01*
X2308717Y-45660180D01*
X2480180Y-45488717D01*
X2614898Y-45287097D01*
X2707693Y-45063069D01*
X2755000Y-44825243D01*
X2755000Y-44582757D01*
X2707693Y-44344931D01*
X2614898Y-44120903D01*
X2480180Y-43919283D01*
X2308717Y-43747820D01*
X2107097Y-43613102D01*
X1883069Y-43520307D01*
X1645243Y-43473000D01*
X1402757Y-43473000D01*
X1164931Y-43520307D01*
X940903Y-43613102D01*
X739283Y-43747820D01*
X635000Y-43852103D01*
X635000Y-43015897D01*
X739283Y-43120180D01*
X940903Y-43254898D01*
X1164931Y-43347693D01*
X1402757Y-43395000D01*
X1645243Y-43395000D01*
X1883069Y-43347693D01*
X2107097Y-43254898D01*
X2308717Y-43120180D01*
X2480180Y-42948717D01*
X2614898Y-42747097D01*
X2707693Y-42523069D01*
X2755000Y-42285243D01*
X2755000Y-42042757D01*
X2707693Y-41804931D01*
X2614898Y-41580903D01*
X2480180Y-41379283D01*
X2308717Y-41207820D01*
X2107097Y-41073102D01*
X1883069Y-40980307D01*
X1645243Y-40933000D01*
X1402757Y-40933000D01*
X1164931Y-40980307D01*
X940903Y-41073102D01*
X739283Y-41207820D01*
X635000Y-41312103D01*
X635000Y-40475897D01*
X739283Y-40580180D01*
X940903Y-40714898D01*
X1164931Y-40807693D01*
X1402757Y-40855000D01*
X1645243Y-40855000D01*
X1883069Y-40807693D01*
X2107097Y-40714898D01*
X2308717Y-40580180D01*
X2480180Y-40408717D01*
X2614898Y-40207097D01*
X2707693Y-39983069D01*
X2755000Y-39745243D01*
X2755000Y-39502757D01*
X2707693Y-39264931D01*
X2614898Y-39040903D01*
X2480180Y-38839283D01*
X2308717Y-38667820D01*
X2107097Y-38533102D01*
X1883069Y-38440307D01*
X1645243Y-38393000D01*
X1402757Y-38393000D01*
X1164931Y-38440307D01*
X940903Y-38533102D01*
X739283Y-38667820D01*
X635000Y-38772103D01*
X635000Y-37935897D01*
X739283Y-38040180D01*
X940903Y-38174898D01*
X1164931Y-38267693D01*
X1402757Y-38315000D01*
X1645243Y-38315000D01*
X1883069Y-38267693D01*
X2107097Y-38174898D01*
X2308717Y-38040180D01*
X2480180Y-37868717D01*
X2614898Y-37667097D01*
X2707693Y-37443069D01*
X2755000Y-37205243D01*
X2755000Y-36962757D01*
X2707693Y-36724931D01*
X2614898Y-36500903D01*
X2480180Y-36299283D01*
X2308717Y-36127820D01*
X2107097Y-35993102D01*
X1883069Y-35900307D01*
X1645243Y-35853000D01*
X1402757Y-35853000D01*
X1164931Y-35900307D01*
X940903Y-35993102D01*
X739283Y-36127820D01*
X635000Y-36232103D01*
X635000Y-35395897D01*
X739283Y-35500180D01*
X940903Y-35634898D01*
X1164931Y-35727693D01*
X1402757Y-35775000D01*
X1645243Y-35775000D01*
X1883069Y-35727693D01*
X2107097Y-35634898D01*
X2308717Y-35500180D01*
X2480180Y-35328717D01*
X2614898Y-35127097D01*
X2707693Y-34903069D01*
X2755000Y-34665243D01*
X2755000Y-34422757D01*
X2707693Y-34184931D01*
X2614898Y-33960903D01*
X2480180Y-33759283D01*
X2308717Y-33587820D01*
X2107097Y-33453102D01*
X1883069Y-33360307D01*
X1645243Y-33313000D01*
X1402757Y-33313000D01*
X1164931Y-33360307D01*
X940903Y-33453102D01*
X739283Y-33587820D01*
X635000Y-33692103D01*
X635000Y-32855897D01*
X739283Y-32960180D01*
X940903Y-33094898D01*
X1164931Y-33187693D01*
X1402757Y-33235000D01*
X1645243Y-33235000D01*
X1883069Y-33187693D01*
X2107097Y-33094898D01*
X2308717Y-32960180D01*
X2480180Y-32788717D01*
X2614898Y-32587097D01*
X2707693Y-32363069D01*
X2755000Y-32125243D01*
X2755000Y-31882757D01*
X2707693Y-31644931D01*
X2614898Y-31420903D01*
X2480180Y-31219283D01*
X2308717Y-31047820D01*
X2107097Y-30913102D01*
X1883069Y-30820307D01*
X1645243Y-30773000D01*
X1402757Y-30773000D01*
X1164931Y-30820307D01*
X940903Y-30913102D01*
X739283Y-31047820D01*
X635000Y-31152103D01*
X635000Y-30315897D01*
X739283Y-30420180D01*
X940903Y-30554898D01*
X1164931Y-30647693D01*
X1402757Y-30695000D01*
X1645243Y-30695000D01*
X1883069Y-30647693D01*
X2107097Y-30554898D01*
X2308717Y-30420180D01*
X2480180Y-30248717D01*
X2614898Y-30047097D01*
X2707693Y-29823069D01*
X2755000Y-29585243D01*
X2755000Y-29342757D01*
X2707693Y-29104931D01*
X2614898Y-28880903D01*
X2480180Y-28679283D01*
X2308717Y-28507820D01*
X2107097Y-28373102D01*
X1883069Y-28280307D01*
X1645243Y-28233000D01*
X1402757Y-28233000D01*
X1164931Y-28280307D01*
X940903Y-28373102D01*
X739283Y-28507820D01*
X635000Y-28612103D01*
X635000Y-27775897D01*
X739283Y-27880180D01*
X940903Y-28014898D01*
X1164931Y-28107693D01*
X1402757Y-28155000D01*
X1645243Y-28155000D01*
X1883069Y-28107693D01*
X2107097Y-28014898D01*
X2308717Y-27880180D01*
X2480180Y-27708717D01*
X2614898Y-27507097D01*
X2707693Y-27283069D01*
X2755000Y-27045243D01*
X2755000Y-26802757D01*
X2707693Y-26564931D01*
X2614898Y-26340903D01*
X2480180Y-26139283D01*
X2308717Y-25967820D01*
X2107097Y-25833102D01*
X1883069Y-25740307D01*
X1645243Y-25693000D01*
X1402757Y-25693000D01*
X1164931Y-25740307D01*
X940903Y-25833102D01*
X739283Y-25967820D01*
X635000Y-26072103D01*
X635000Y-25233802D01*
X642877Y-25243645D01*
X827516Y-25399026D01*
X1038921Y-25515400D01*
X1268967Y-25588295D01*
X1460500Y-25518114D01*
X1460500Y-24447500D01*
X1587500Y-24447500D01*
X1587500Y-25518114D01*
X1779033Y-25588295D01*
X2009079Y-25515400D01*
X2220484Y-25399026D01*
X2405123Y-25243645D01*
X2555901Y-25055229D01*
X2667024Y-24841018D01*
X2728292Y-24639033D01*
X2657973Y-24447500D01*
X1587500Y-24447500D01*
X1460500Y-24447500D01*
X1440500Y-24447500D01*
X1440500Y-24320500D01*
X1460500Y-24320500D01*
X1460500Y-23249886D01*
X1587500Y-23249886D01*
X1587500Y-24320500D01*
X2657973Y-24320500D01*
X2728292Y-24128967D01*
X2667024Y-23926982D01*
X2555901Y-23712771D01*
X2405123Y-23524355D01*
X2220484Y-23368974D01*
X2009079Y-23252600D01*
X1779033Y-23179705D01*
X1587500Y-23249886D01*
X1460500Y-23249886D01*
X1268967Y-23179705D01*
X1038921Y-23252600D01*
X827516Y-23368974D01*
X642877Y-23524355D01*
X635000Y-23534198D01*
X635000Y-22693802D01*
X642877Y-22703645D01*
X827516Y-22859026D01*
X1038921Y-22975400D01*
X1268967Y-23048295D01*
X1460500Y-22978114D01*
X1460500Y-21907500D01*
X1587500Y-21907500D01*
X1587500Y-22978114D01*
X1779033Y-23048295D01*
X2009079Y-22975400D01*
X2220484Y-22859026D01*
X2405123Y-22703645D01*
X2555901Y-22515229D01*
X2667024Y-22301018D01*
X2728292Y-22099033D01*
X2657973Y-21907500D01*
X1587500Y-21907500D01*
X1460500Y-21907500D01*
X1440500Y-21907500D01*
X1440500Y-21780500D01*
X1460500Y-21780500D01*
X1460500Y-20709886D01*
X1587500Y-20709886D01*
X1587500Y-21780500D01*
X2657973Y-21780500D01*
X2728292Y-21588967D01*
X2667024Y-21386982D01*
X2555901Y-21172771D01*
X2405123Y-20984355D01*
X2220484Y-20828974D01*
X2009079Y-20712600D01*
X1779033Y-20639705D01*
X1587500Y-20709886D01*
X1460500Y-20709886D01*
X1268967Y-20639705D01*
X1038921Y-20712600D01*
X827516Y-20828974D01*
X642877Y-20984355D01*
X635000Y-20994198D01*
X635000Y-20155897D01*
X739283Y-20260180D01*
X940903Y-20394898D01*
X1164931Y-20487693D01*
X1402757Y-20535000D01*
X1645243Y-20535000D01*
X1883069Y-20487693D01*
X2107097Y-20394898D01*
X2308717Y-20260180D01*
X2480180Y-20088717D01*
X2614898Y-19887097D01*
X2707693Y-19663069D01*
X2755000Y-19425243D01*
X2755000Y-19182757D01*
X2707693Y-18944931D01*
X2614898Y-18720903D01*
X2480180Y-18519283D01*
X2308717Y-18347820D01*
X2107097Y-18213102D01*
X1883069Y-18120307D01*
X1645243Y-18073000D01*
X1402757Y-18073000D01*
X1164931Y-18120307D01*
X940903Y-18213102D01*
X739283Y-18347820D01*
X635000Y-18452103D01*
X635000Y-17615897D01*
X739283Y-17720180D01*
X940903Y-17854898D01*
X1164931Y-17947693D01*
X1402757Y-17995000D01*
X1645243Y-17995000D01*
X1883069Y-17947693D01*
X2107097Y-17854898D01*
X2308717Y-17720180D01*
X2480180Y-17548717D01*
X2614898Y-17347097D01*
X2707693Y-17123069D01*
X2755000Y-16885243D01*
X2755000Y-16642757D01*
X2707693Y-16404931D01*
X2614898Y-16180903D01*
X2480180Y-15979283D01*
X2308717Y-15807820D01*
X2107097Y-15673102D01*
X1883069Y-15580307D01*
X1645243Y-15533000D01*
X1402757Y-15533000D01*
X1164931Y-15580307D01*
X940903Y-15673102D01*
X739283Y-15807820D01*
X635000Y-15912103D01*
X635000Y-15075897D01*
X739283Y-15180180D01*
X940903Y-15314898D01*
X1164931Y-15407693D01*
X1402757Y-15455000D01*
X1645243Y-15455000D01*
X1883069Y-15407693D01*
X2107097Y-15314898D01*
X2308717Y-15180180D01*
X2480180Y-15008717D01*
X2614898Y-14807097D01*
X2707693Y-14583069D01*
X2755000Y-14345243D01*
X2755000Y-14102757D01*
X2707693Y-13864931D01*
X2614898Y-13640903D01*
X2480180Y-13439283D01*
X2308717Y-13267820D01*
X2107097Y-13133102D01*
X1883069Y-13040307D01*
X1645243Y-12993000D01*
X1402757Y-12993000D01*
X1164931Y-13040307D01*
X940903Y-13133102D01*
X739283Y-13267820D01*
X635000Y-13372103D01*
X635000Y-12535897D01*
X739283Y-12640180D01*
X940903Y-12774898D01*
X1164931Y-12867693D01*
X1402757Y-12915000D01*
X1645243Y-12915000D01*
X1883069Y-12867693D01*
X2107097Y-12774898D01*
X2308717Y-12640180D01*
X2480180Y-12468717D01*
X2614898Y-12267097D01*
X2707693Y-12043069D01*
X2755000Y-11805243D01*
X2755000Y-11562757D01*
X2707693Y-11324931D01*
X2614898Y-11100903D01*
X2480180Y-10899283D01*
X2308717Y-10727820D01*
X2107097Y-10593102D01*
X1883069Y-10500307D01*
X1645243Y-10453000D01*
X1402757Y-10453000D01*
X1164931Y-10500307D01*
X940903Y-10593102D01*
X739283Y-10727820D01*
X635000Y-10832103D01*
X635000Y-9995897D01*
X739283Y-10100180D01*
X940903Y-10234898D01*
X1164931Y-10327693D01*
X1402757Y-10375000D01*
X1645243Y-10375000D01*
X1883069Y-10327693D01*
X2107097Y-10234898D01*
X2308717Y-10100180D01*
X2480180Y-9928717D01*
X2614898Y-9727097D01*
X2707693Y-9503069D01*
X2755000Y-9265243D01*
X2755000Y-9022757D01*
X2707693Y-8784931D01*
X2614898Y-8560903D01*
X2480180Y-8359283D01*
X2308717Y-8187820D01*
X2107097Y-8053102D01*
X1883069Y-7960307D01*
X1645243Y-7913000D01*
X1402757Y-7913000D01*
X1164931Y-7960307D01*
X940903Y-8053102D01*
X739283Y-8187820D01*
X635000Y-8292103D01*
X635000Y-7455897D01*
X739283Y-7560180D01*
X940903Y-7694898D01*
X1164931Y-7787693D01*
X1402757Y-7835000D01*
X1645243Y-7835000D01*
X1883069Y-7787693D01*
X2107097Y-7694898D01*
X2308717Y-7560180D01*
X2480180Y-7388717D01*
X2614898Y-7187097D01*
X2675235Y-7041430D01*
X2706707Y-7079779D01*
X2760579Y-7145422D01*
X2789649Y-7169279D01*
X3472116Y-7851747D01*
X3578253Y-7957884D01*
X3578256Y-7957886D01*
X3937000Y-8316631D01*
X3936999Y-15066605D01*
X3935355Y-15068608D01*
X3901830Y-15131331D01*
X3847753Y-15077254D01*
X3735429Y-15002201D01*
X3610621Y-14950504D01*
X3478126Y-14924149D01*
X3343036Y-14924149D01*
X3210541Y-14950504D01*
X3085733Y-15002201D01*
X2973409Y-15077254D01*
X2877886Y-15172777D01*
X2802833Y-15285101D01*
X2751136Y-15409909D01*
X2724781Y-15542404D01*
X2724781Y-15677494D01*
X2751136Y-15809989D01*
X2794001Y-15913474D01*
X2794000Y-20295056D01*
X2791543Y-20320000D01*
X2794000Y-20344944D01*
X2794000Y-20344946D01*
X2801351Y-20419584D01*
X2830399Y-20515342D01*
X2877571Y-20603595D01*
X2941052Y-20680948D01*
X2960435Y-20696855D01*
X6139580Y-23876000D01*
X5754435Y-24261145D01*
X5735052Y-24277052D01*
X5671571Y-24354405D01*
X5624399Y-24442658D01*
X5595351Y-24538416D01*
X5588000Y-24613053D01*
X5585543Y-24638000D01*
X5588000Y-24662945D01*
X5588000Y-25016906D01*
X5534040Y-24994555D01*
X5401545Y-24968200D01*
X5266455Y-24968200D01*
X5133960Y-24994555D01*
X5009152Y-25046252D01*
X4896828Y-25121305D01*
X4801305Y-25216828D01*
X4726252Y-25329152D01*
X4674555Y-25453960D01*
X4648200Y-25586455D01*
X4648200Y-25721545D01*
X4674555Y-25854040D01*
X4726252Y-25978848D01*
X4801305Y-26091172D01*
X4826001Y-26115868D01*
X4826000Y-35458108D01*
X4823543Y-35483052D01*
X4826000Y-35507996D01*
X4826000Y-35507998D01*
X4833351Y-35582636D01*
X4862399Y-35678394D01*
X4909571Y-35766647D01*
X4973052Y-35844000D01*
X4992435Y-35859907D01*
X5796093Y-36663565D01*
X5812000Y-36682948D01*
X5889353Y-36746429D01*
X5977605Y-36793601D01*
X6073363Y-36822649D01*
X6141492Y-36829359D01*
X6166828Y-36854695D01*
X6279152Y-36929748D01*
X6403960Y-36981445D01*
X6536455Y-37007800D01*
X6671545Y-37007800D01*
X6804040Y-36981445D01*
X6928848Y-36929748D01*
X7041172Y-36854695D01*
X7136695Y-36759172D01*
X7211748Y-36646848D01*
X7263445Y-36522040D01*
X7289800Y-36389545D01*
X7289800Y-36254455D01*
X7263445Y-36121960D01*
X7211748Y-35997152D01*
X7136695Y-35884828D01*
X7041172Y-35789305D01*
X6928848Y-35714252D01*
X6907835Y-35705548D01*
X6957748Y-35630848D01*
X7009445Y-35506040D01*
X7035800Y-35373545D01*
X7035800Y-35238455D01*
X7009445Y-35105960D01*
X6957748Y-34981152D01*
X6882695Y-34868828D01*
X6787172Y-34773305D01*
X6674848Y-34698252D01*
X6550040Y-34646555D01*
X6417545Y-34620200D01*
X6382620Y-34620200D01*
X6349999Y-34587579D01*
X6349999Y-26372420D01*
X6437560Y-26284859D01*
X6456948Y-26268948D01*
X6520429Y-26191595D01*
X6567601Y-26103343D01*
X6596649Y-26007585D01*
X6604000Y-25932947D01*
X6604000Y-25932944D01*
X6606457Y-25908000D01*
X6604000Y-25883056D01*
X6604000Y-24904000D01*
X6961157Y-24904000D01*
X6961157Y-26404000D01*
X6968513Y-26478689D01*
X6990299Y-26550508D01*
X7025678Y-26616696D01*
X7073289Y-26674711D01*
X7131304Y-26722322D01*
X7197492Y-26757701D01*
X7269311Y-26779487D01*
X7344000Y-26786843D01*
X7357688Y-26786843D01*
X7372400Y-26835343D01*
X7419571Y-26923595D01*
X7467150Y-26981570D01*
X7483053Y-27000948D01*
X7502430Y-27016850D01*
X9398000Y-28912421D01*
X9398001Y-31034132D01*
X9373305Y-31058828D01*
X9298252Y-31171152D01*
X9246555Y-31295960D01*
X9220200Y-31428455D01*
X9220200Y-31563545D01*
X9246555Y-31696040D01*
X9298252Y-31820848D01*
X9373305Y-31933172D01*
X9468828Y-32028695D01*
X9581152Y-32103748D01*
X9705960Y-32155445D01*
X9838455Y-32181800D01*
X9973545Y-32181800D01*
X10106040Y-32155445D01*
X10230848Y-32103748D01*
X10256911Y-32086333D01*
X10236200Y-32190455D01*
X10236200Y-32325545D01*
X10262555Y-32458040D01*
X10314252Y-32582848D01*
X10389305Y-32695172D01*
X10484828Y-32790695D01*
X10597152Y-32865748D01*
X10721960Y-32917445D01*
X10854455Y-32943800D01*
X10989545Y-32943800D01*
X11122040Y-32917445D01*
X11246848Y-32865748D01*
X11359172Y-32790695D01*
X11454695Y-32695172D01*
X11529748Y-32582848D01*
X11581445Y-32458040D01*
X11607800Y-32325545D01*
X11607800Y-32190455D01*
X11581445Y-32057960D01*
X11529748Y-31933152D01*
X11454695Y-31820828D01*
X11430000Y-31796133D01*
X11430000Y-31597141D01*
X11432457Y-31572197D01*
X11427409Y-31520947D01*
X11422649Y-31472613D01*
X11393601Y-31376855D01*
X11371643Y-31335774D01*
X11346429Y-31288602D01*
X11298850Y-31230627D01*
X11282948Y-31211250D01*
X11263570Y-31195347D01*
X10952000Y-30883778D01*
X10952000Y-26786055D01*
X11018689Y-26779487D01*
X11090508Y-26757701D01*
X11156696Y-26722322D01*
X11214711Y-26674711D01*
X11262322Y-26616696D01*
X11297701Y-26550508D01*
X11319487Y-26478689D01*
X11326843Y-26404000D01*
X11326843Y-24904000D01*
X11319487Y-24829311D01*
X11297701Y-24757492D01*
X11262322Y-24691304D01*
X11214711Y-24633289D01*
X11156696Y-24585678D01*
X11090508Y-24550299D01*
X11018689Y-24528513D01*
X10944000Y-24521157D01*
X9979263Y-24521157D01*
X10446621Y-24053800D01*
X10481545Y-24053800D01*
X10614040Y-24027445D01*
X10738848Y-23975748D01*
X10851172Y-23900695D01*
X10946695Y-23805172D01*
X11021748Y-23692848D01*
X11073445Y-23568040D01*
X11099800Y-23435545D01*
X11099800Y-23300455D01*
X11073445Y-23167960D01*
X11021748Y-23043152D01*
X10946695Y-22930828D01*
X10851172Y-22835305D01*
X10738848Y-22760252D01*
X10614040Y-22708555D01*
X10481545Y-22682200D01*
X10346455Y-22682200D01*
X10213960Y-22708555D01*
X10089152Y-22760252D01*
X9976828Y-22835305D01*
X9881305Y-22930828D01*
X9806252Y-23043152D01*
X9754555Y-23167960D01*
X9728200Y-23300455D01*
X9728200Y-23335379D01*
X8802435Y-24261145D01*
X8783052Y-24277052D01*
X8719571Y-24354405D01*
X8672399Y-24442658D01*
X8648586Y-24521157D01*
X8644000Y-24521157D01*
X8569311Y-24528513D01*
X8497492Y-24550299D01*
X8494000Y-24552166D01*
X8490508Y-24550299D01*
X8418689Y-24528513D01*
X8344000Y-24521157D01*
X7344000Y-24521157D01*
X7269311Y-24528513D01*
X7197492Y-24550299D01*
X7131304Y-24585678D01*
X7073289Y-24633289D01*
X7025678Y-24691304D01*
X6990299Y-24757492D01*
X6968513Y-24829311D01*
X6961157Y-24904000D01*
X6604000Y-24904000D01*
X6604000Y-24848420D01*
X6890620Y-24561800D01*
X6925545Y-24561800D01*
X7058040Y-24535445D01*
X7182848Y-24483748D01*
X7295172Y-24408695D01*
X7390695Y-24313172D01*
X7465748Y-24200848D01*
X7517445Y-24076040D01*
X7543800Y-23943545D01*
X7543800Y-23808455D01*
X7517445Y-23675960D01*
X7465748Y-23551152D01*
X7390695Y-23438828D01*
X7295172Y-23343305D01*
X7182848Y-23268252D01*
X7058040Y-23216555D01*
X6925545Y-23190200D01*
X6890621Y-23190200D01*
X3810000Y-20109580D01*
X3810000Y-17229573D01*
X3841733Y-17242717D01*
X3988950Y-17272000D01*
X4139050Y-17272000D01*
X4286267Y-17242717D01*
X4424942Y-17185276D01*
X4549747Y-17101884D01*
X4655884Y-16995747D01*
X4739276Y-16870942D01*
X4796717Y-16732267D01*
X4826000Y-16585050D01*
X4826000Y-16434950D01*
X4796717Y-16287733D01*
X4772573Y-16229443D01*
X4865015Y-16201401D01*
X4997392Y-16130645D01*
X5084351Y-16059279D01*
X5211342Y-15932287D01*
X5240421Y-15908423D01*
X5335644Y-15792393D01*
X5406401Y-15660016D01*
X5449973Y-15516379D01*
X5460999Y-15404427D01*
X5460999Y-15404424D01*
X5464685Y-15367001D01*
X5460999Y-15329578D01*
X5460999Y-9840629D01*
X7620000Y-11999631D01*
X7620001Y-19520567D01*
X7616314Y-19558000D01*
X7631027Y-19707378D01*
X7674599Y-19851015D01*
X7745355Y-19983392D01*
X7788862Y-20036405D01*
X7840579Y-20099422D01*
X7869649Y-20123279D01*
X8552116Y-20805747D01*
X8658253Y-20911884D01*
X8689535Y-20932786D01*
X8718607Y-20956645D01*
X8751775Y-20974374D01*
X8783058Y-20995276D01*
X8817821Y-21009675D01*
X8850984Y-21027401D01*
X8886966Y-21038316D01*
X8921733Y-21052717D01*
X8958640Y-21060058D01*
X8994621Y-21070973D01*
X9032043Y-21074659D01*
X9068950Y-21082000D01*
X9106577Y-21082000D01*
X9144000Y-21085686D01*
X9181423Y-21082000D01*
X9219050Y-21082000D01*
X9255957Y-21074659D01*
X9293378Y-21070973D01*
X9329358Y-21060059D01*
X9366267Y-21052717D01*
X9401035Y-21038316D01*
X9437016Y-21027401D01*
X9470178Y-21009676D01*
X9504942Y-20995276D01*
X9536228Y-20974372D01*
X9569392Y-20956645D01*
X9598459Y-20932790D01*
X9629747Y-20911884D01*
X9656359Y-20885272D01*
X9685421Y-20861421D01*
X9709272Y-20832359D01*
X9735884Y-20805747D01*
X9756790Y-20774459D01*
X9780645Y-20745392D01*
X9798372Y-20712228D01*
X9819276Y-20680942D01*
X9833676Y-20646178D01*
X9851401Y-20613016D01*
X9862316Y-20577035D01*
X9876717Y-20542267D01*
X9884059Y-20505358D01*
X9894973Y-20469378D01*
X9898659Y-20431957D01*
X9906000Y-20395050D01*
X9906000Y-20357423D01*
X9909686Y-20320000D01*
X9906000Y-20282577D01*
X9906000Y-20244950D01*
X9898659Y-20208043D01*
X9894973Y-20170621D01*
X9884058Y-20134640D01*
X9876717Y-20097733D01*
X9862316Y-20062966D01*
X9851401Y-20026984D01*
X9833675Y-19993821D01*
X9819276Y-19959058D01*
X9798374Y-19927775D01*
X9780645Y-19894607D01*
X9756786Y-19865535D01*
X9735884Y-19834253D01*
X9629747Y-19728116D01*
X9144000Y-19242370D01*
X9144000Y-11721422D01*
X9147686Y-11683999D01*
X9144000Y-11646574D01*
X9132974Y-11534622D01*
X9089402Y-11390985D01*
X9018645Y-11258608D01*
X8923422Y-11142578D01*
X8894353Y-11118722D01*
X5264282Y-7488652D01*
X5240421Y-7459577D01*
X5211350Y-7435719D01*
X4655886Y-6880256D01*
X4655884Y-6880253D01*
X4549747Y-6774116D01*
X4064000Y-6288370D01*
X4064000Y-5408142D01*
X4082649Y-5436052D01*
X4215948Y-5569351D01*
X4372690Y-5674083D01*
X4546853Y-5746223D01*
X4731744Y-5783000D01*
X4920256Y-5783000D01*
X5105147Y-5746223D01*
X5279310Y-5674083D01*
X5436052Y-5569351D01*
X5569351Y-5436052D01*
X5674083Y-5279310D01*
X5746223Y-5105147D01*
X5783000Y-4920256D01*
X5783000Y-4731744D01*
X5746223Y-4546853D01*
X5674083Y-4372690D01*
X5569351Y-4215948D01*
X5436052Y-4082649D01*
X5279310Y-3977917D01*
X5105147Y-3905777D01*
X4920256Y-3869000D01*
X4731744Y-3869000D01*
X4546853Y-3905777D01*
X4372690Y-3977917D01*
X4215948Y-4082649D01*
X4082649Y-4215948D01*
X4064000Y-4243858D01*
X4064000Y-3871630D01*
X5178788Y-2756843D01*
X6184000Y-2756843D01*
X6258689Y-2749487D01*
X6330508Y-2727701D01*
X6396696Y-2692322D01*
X6454711Y-2644711D01*
X6502322Y-2586696D01*
X6537701Y-2520508D01*
X6559487Y-2448689D01*
X6566843Y-2374000D01*
X6566843Y-1779033D01*
X6669705Y-1779033D01*
X6742600Y-2009079D01*
X6858974Y-2220484D01*
X7014355Y-2405123D01*
X7202771Y-2555901D01*
X7416982Y-2667024D01*
X7618967Y-2728292D01*
X7810500Y-2657973D01*
X7810500Y-1587500D01*
X7937500Y-1587500D01*
X7937500Y-2657973D01*
X8129033Y-2728292D01*
X8331018Y-2667024D01*
X8545229Y-2555901D01*
X8733645Y-2405123D01*
X8889026Y-2220484D01*
X9005400Y-2009079D01*
X9078295Y-1779033D01*
X9008114Y-1587500D01*
X7937500Y-1587500D01*
X7810500Y-1587500D01*
X6739886Y-1587500D01*
X6669705Y-1779033D01*
X6566843Y-1779033D01*
X6566843Y-674000D01*
X6563002Y-635000D01*
X7024198Y-635000D01*
X7014355Y-642877D01*
G36*
X2789654Y-2990716D02*
G01*
X2760578Y-3014578D01*
X2704983Y-3082322D01*
X2665355Y-3130608D01*
X2639409Y-3179150D01*
X2594598Y-3262986D01*
X2555472Y-3391966D01*
X2480180Y-3279283D01*
X2308717Y-3107820D01*
X2107097Y-2973102D01*
X1883069Y-2880307D01*
X1645243Y-2833000D01*
X1402757Y-2833000D01*
X1164931Y-2880307D01*
X940903Y-2973102D01*
X739283Y-3107820D01*
X635000Y-3212103D01*
X635000Y-2753002D01*
X674000Y-2756843D01*
X2374000Y-2756843D01*
X2448689Y-2749487D01*
X2520508Y-2727701D01*
X2586696Y-2692322D01*
X2644711Y-2644711D01*
X2692322Y-2586696D01*
X2727701Y-2520508D01*
X2749487Y-2448689D01*
X2756843Y-2374000D01*
X2756843Y-2159000D01*
X3621370Y-2159000D01*
X2789654Y-2990716D01*
G37*
X2789654Y-2990716D02*
X2760578Y-3014578D01*
X2704983Y-3082322D01*
X2665355Y-3130608D01*
X2639409Y-3179150D01*
X2594598Y-3262986D01*
X2555472Y-3391966D01*
X2480180Y-3279283D01*
X2308717Y-3107820D01*
X2107097Y-2973102D01*
X1883069Y-2880307D01*
X1645243Y-2833000D01*
X1402757Y-2833000D01*
X1164931Y-2880307D01*
X940903Y-2973102D01*
X739283Y-3107820D01*
X635000Y-3212103D01*
X635000Y-2753002D01*
X674000Y-2756843D01*
X2374000Y-2756843D01*
X2448689Y-2749487D01*
X2520508Y-2727701D01*
X2586696Y-2692322D01*
X2644711Y-2644711D01*
X2692322Y-2586696D01*
X2727701Y-2520508D01*
X2749487Y-2448689D01*
X2756843Y-2374000D01*
X2756843Y-2159000D01*
X3621370Y-2159000D01*
X2789654Y-2990716D01*
M02*
